<svg width="256" height="389" viewBox="0 0 256 389" fill="none" xmlns="http://www.w3.org/2000/svg">
<rect y="40" width="256" height="349" rx="50" fill="#FF0000"/>
<circle cx="128" cy="40" r="37" fill="white" stroke="#FF0000" stroke-width="6"/>
<path d="M133.597 25.9091V55H126.58V32.4716H126.409L119.903 36.4489V30.3693L127.077 25.9091H133.597Z" fill="#FF0000"/>
<path d="M70.2356 267.273L66.1305 292H59.4174L63.5225 267.273H70.2356ZM94.812 267.273L90.7069 292H85.1046L78.3432 279.009H78.1983L76.025 292H69.312L73.4171 267.273H79.1159L85.7807 280.216H85.9739L88.0989 267.273H94.812ZM104.7 267.273L100.595 292H93.8823L97.9874 267.273H104.7ZM129.398 276.545H122.684C122.733 275.974 122.701 275.459 122.588 275C122.475 274.541 122.282 274.147 122.008 273.817C121.735 273.479 121.376 273.221 120.934 273.044C120.491 272.867 119.964 272.778 119.352 272.778C118.177 272.778 117.126 273.072 116.201 273.66C115.275 274.239 114.506 275.072 113.895 276.159C113.283 277.238 112.848 278.526 112.591 280.023C112.365 281.472 112.357 282.675 112.567 283.633C112.784 284.591 113.206 285.307 113.834 285.782C114.47 286.257 115.295 286.494 116.309 286.494C116.986 286.494 117.605 286.414 118.169 286.253C118.74 286.092 119.247 285.862 119.69 285.565C120.141 285.259 120.523 284.897 120.837 284.478C121.159 284.051 121.405 283.58 121.574 283.065H128.335C128.077 284.112 127.619 285.182 126.959 286.277C126.299 287.364 125.445 288.366 124.399 289.283C123.353 290.193 122.121 290.929 120.704 291.493C119.288 292.056 117.694 292.338 115.923 292.338C113.605 292.338 111.605 291.831 109.922 290.817C108.248 289.803 107.033 288.321 106.276 286.374C105.528 284.426 105.379 282.051 105.829 279.25C106.28 276.545 107.17 274.28 108.498 272.452C109.826 270.625 111.44 269.249 113.339 268.323C115.239 267.397 117.259 266.935 119.4 266.935C121.018 266.935 122.467 267.148 123.747 267.575C125.035 268.001 126.117 268.625 126.995 269.446C127.88 270.259 128.532 271.261 128.951 272.452C129.369 273.644 129.518 275.008 129.398 276.545ZM140.726 267.273L136.621 292H129.908L134.013 267.273H140.726ZM146.225 292H138.981L151.248 267.273H160.424L164.481 292H157.237L154.822 274.082H154.629L146.225 292ZM146.515 282.244H160.135L159.265 287.267H145.646L146.515 282.244ZM166.863 292L170.968 267.273H181.641C183.476 267.273 185.026 267.607 186.29 268.275C187.553 268.943 188.463 269.905 189.018 271.161C189.574 272.416 189.706 273.921 189.417 275.676C189.127 277.447 188.487 278.94 187.497 280.156C186.515 281.363 185.263 282.281 183.742 282.908C182.229 283.528 180.53 283.838 178.647 283.838H172.272L173.141 278.622H178.164C178.953 278.622 179.645 278.526 180.241 278.332C180.836 278.131 181.319 277.817 181.689 277.391C182.06 276.956 182.301 276.384 182.414 275.676C182.527 274.968 182.47 274.392 182.245 273.95C182.019 273.499 181.645 273.169 181.122 272.96C180.599 272.742 179.951 272.634 179.178 272.634H176.812L173.576 292H166.863ZM183.235 280.651L187.533 292H180.241L176.087 280.651H183.235ZM80.1966 316C80.269 315.203 80.0758 314.579 79.617 314.129C79.1582 313.67 78.3855 313.44 77.2988 313.44C76.6066 313.44 76.027 313.521 75.5602 313.682C75.1014 313.843 74.7432 314.064 74.4856 314.346C74.2361 314.628 74.0791 314.954 74.0147 315.324C73.9423 315.614 73.9463 315.879 74.0268 316.121C74.1154 316.354 74.2804 316.567 74.5218 316.761C74.7714 316.954 75.0974 317.127 75.4998 317.28C75.9103 317.433 76.3973 317.57 76.9608 317.69L78.8926 318.125C80.2127 318.415 81.3194 318.797 82.2129 319.272C83.1144 319.739 83.8227 320.294 84.3379 320.938C84.853 321.582 85.1911 322.303 85.3521 323.099C85.5211 323.896 85.5252 324.766 85.3642 325.707C85.0905 327.333 84.4586 328.71 83.4686 329.837C82.4785 330.964 81.1866 331.821 79.5929 332.408C77.9991 332.996 76.1558 333.29 74.063 333.29C71.9219 333.29 70.1028 332.972 68.6056 332.336C67.1165 331.692 66.0379 330.71 65.3699 329.39C64.7098 328.062 64.5488 326.367 64.8869 324.307H71.2619C71.1653 325.063 71.2458 325.699 71.5034 326.214C71.7609 326.73 72.1755 327.12 72.747 327.386C73.3185 327.651 74.0308 327.784 74.8841 327.784C75.6085 327.784 76.2283 327.696 76.7434 327.518C77.2586 327.341 77.6651 327.096 77.9629 326.782C78.2607 326.468 78.4418 326.11 78.5062 325.707C78.5706 325.337 78.5062 325.007 78.313 324.717C78.1199 324.428 77.7697 324.166 77.2626 323.933C76.7555 323.699 76.0592 323.486 75.1738 323.293L72.8074 322.761C70.7065 322.278 69.1208 321.482 68.0502 320.371C66.9797 319.26 66.6014 317.739 66.9153 315.807C67.1729 314.229 67.8208 312.853 68.8592 311.678C69.9056 310.494 71.2337 309.577 72.8436 308.925C74.4615 308.265 76.2524 307.935 78.2164 307.935C80.2127 307.935 81.8829 308.269 83.2271 308.937C84.5794 309.605 85.5493 310.543 86.1369 311.75C86.7325 312.957 86.8935 314.374 86.6199 316H80.1966ZM86.7104 333L90.8155 308.273H108.637L107.719 313.682H96.611L95.9348 317.932H106.125L105.208 323.341H95.0172L94.3411 327.591H105.401L104.483 333H86.7104ZM123.991 316C124.064 315.203 123.871 314.579 123.412 314.129C122.953 313.67 122.18 313.44 121.094 313.44C120.402 313.44 119.822 313.521 119.355 313.682C118.896 313.843 118.538 314.064 118.281 314.346C118.031 314.628 117.874 314.954 117.81 315.324C117.737 315.614 117.741 315.879 117.822 316.121C117.91 316.354 118.075 316.567 118.317 316.761C118.566 316.954 118.892 317.127 119.295 317.28C119.705 317.433 120.192 317.57 120.756 317.69L122.688 318.125C124.008 318.415 125.114 318.797 126.008 319.272C126.909 319.739 127.618 320.294 128.133 320.938C128.648 321.582 128.986 322.303 129.147 323.099C129.316 323.896 129.32 324.766 129.159 325.707C128.885 327.333 128.254 328.71 127.263 329.837C126.273 330.964 124.982 331.821 123.388 332.408C121.794 332.996 119.951 333.29 117.858 333.29C115.717 333.29 113.898 332.972 112.401 332.336C110.911 331.692 109.833 330.71 109.165 329.39C108.505 328.062 108.344 326.367 108.682 324.307H115.057C114.96 325.063 115.041 325.699 115.298 326.214C115.556 326.73 115.97 327.12 116.542 327.386C117.113 327.651 117.826 327.784 118.679 327.784C119.403 327.784 120.023 327.696 120.538 327.518C121.054 327.341 121.46 327.096 121.758 326.782C122.056 326.468 122.237 326.11 122.301 325.707C122.366 325.337 122.301 325.007 122.108 324.717C121.915 324.428 121.565 324.166 121.058 323.933C120.55 323.699 119.854 323.486 118.969 323.293L116.602 322.761C114.501 322.278 112.916 321.482 111.845 320.371C110.775 319.26 110.396 317.739 110.71 315.807C110.968 314.229 111.616 312.853 112.654 311.678C113.701 310.494 115.029 309.577 116.638 308.925C118.256 308.265 120.047 307.935 122.011 307.935C124.008 307.935 125.678 308.269 127.022 308.937C128.374 309.605 129.344 310.543 129.932 311.75C130.527 312.957 130.688 314.374 130.415 316H123.991ZM141.324 308.273L137.218 333H130.505L134.61 308.273H141.324ZM166.335 321.071C165.884 323.759 164.99 326.013 163.654 327.832C162.318 329.652 160.696 331.024 158.788 331.95C156.881 332.875 154.84 333.338 152.667 333.338C150.349 333.338 148.336 332.835 146.63 331.829C144.924 330.823 143.68 329.35 142.899 327.41C142.118 325.47 141.961 323.099 142.428 320.298C142.863 317.61 143.748 315.348 145.085 313.513C146.421 311.678 148.051 310.289 149.974 309.347C151.898 308.406 153.955 307.935 156.144 307.935C158.446 307.935 160.446 308.442 162.145 309.456C163.851 310.47 165.091 311.955 165.864 313.911C166.644 315.867 166.801 318.254 166.335 321.071ZM159.573 320.298C159.799 318.882 159.815 317.69 159.621 316.724C159.428 315.75 159.022 315.018 158.402 314.527C157.782 314.028 156.949 313.778 155.903 313.778C154.711 313.778 153.657 314.068 152.739 314.648C151.822 315.227 151.061 316.06 150.457 317.147C149.854 318.234 149.431 319.542 149.19 321.071C148.932 322.504 148.908 323.695 149.117 324.645C149.335 325.595 149.761 326.307 150.397 326.782C151.041 327.257 151.878 327.494 152.908 327.494C154.084 327.494 155.122 327.213 156.023 326.649C156.933 326.086 157.686 325.269 158.281 324.198C158.885 323.128 159.316 321.828 159.573 320.298ZM192.96 308.273L188.855 333H183.253L176.492 320.009H176.347L174.173 333H167.46L171.566 308.273H177.264L183.929 321.216H184.122L186.247 308.273H192.96Z" fill="white"/>
<path d="M178 209V197C178 190.635 175.392 184.53 170.751 180.029C166.109 175.529 159.814 173 153.25 173H103.75C97.1859 173 90.8906 175.529 86.2491 180.029C81.6076 184.53 79 190.635 79 197V209" stroke="white" stroke-width="17" stroke-linecap="round" stroke-linejoin="round"/>
<path d="M128.5 146C142.583 146 154 135.255 154 122C154 108.745 142.583 98 128.5 98C114.417 98 103 108.745 103 122C103 135.255 114.417 146 128.5 146Z" stroke="white" stroke-width="17" stroke-linecap="round" stroke-linejoin="round"/>
</svg>
