<svg width="259" height="389" viewBox="0 0 259 389" fill="none" xmlns="http://www.w3.org/2000/svg">
<rect x="2.33002" y="40" width="256" height="349" rx="50" fill="#FF0000"/>
<circle cx="130.33" cy="40" r="37" fill="white" stroke="#FF0000" stroke-width="6"/>
<path d="M117.79 50.1705V44.6875L129.707 25.9091H134.58V33.3523H131.753L124.778 44.4034V44.6307H142.037V50.1705H117.79ZM131.838 55V48.4943L131.98 46.0938V25.9091H138.557V55H131.838Z" fill="#FF0000"/>
<path d="M21.0959 298L25.9254 268.909H46.38L45.3004 275.273H32.7436L31.9482 280.273H43.255L42.1754 286.636H30.8686L28.9936 298H21.0959ZM57.1825 268.909L52.353 298H44.4553L49.2848 268.909H57.1825ZM86.0959 268.909L81.2663 298H74.6754L66.7209 282.716H66.5504L63.9936 298H56.0959L60.9254 268.909H67.63L75.4709 284.136H75.6982L78.1982 268.909H86.0959ZM92.5589 298H84.0362L98.468 268.909H109.263L114.036 298H105.513L102.673 276.92H102.445L92.5589 298ZM92.8999 286.523H108.923L107.9 292.432H91.8771L92.8999 286.523ZM116.838 298L121.668 268.909H129.565L125.815 291.636H137.577L136.497 298H116.838ZM152.417 268.909L147.587 298H139.69L144.519 268.909H152.417ZM151.444 298L152.183 293.625L169.001 275.273H155.251L156.33 268.909H180.08L179.342 273.284L162.523 291.636H176.273L175.194 298H151.444ZM186.661 298H178.138L192.57 268.909H203.365L208.138 298H199.615L196.774 276.92H196.547L186.661 298ZM187.001 286.523H203.024L202.001 292.432H185.979L187.001 286.523ZM210.94 298L215.769 268.909H228.326C230.485 268.909 232.308 269.302 233.795 270.088C235.281 270.874 236.352 272.006 237.005 273.483C237.658 274.96 237.815 276.731 237.474 278.795C237.133 280.879 236.38 282.635 235.215 284.065C234.06 285.486 232.587 286.565 230.798 287.304C229.017 288.033 227.019 288.398 224.803 288.398H217.303L218.326 282.261H224.235C225.163 282.261 225.978 282.148 226.678 281.92C227.379 281.684 227.947 281.314 228.383 280.812C228.818 280.301 229.103 279.629 229.235 278.795C229.368 277.962 229.301 277.285 229.036 276.764C228.771 276.234 228.331 275.846 227.715 275.599C227.1 275.344 226.337 275.216 225.428 275.216H222.644L218.837 298H210.94ZM230.201 284.648L235.258 298H226.678L221.792 284.648H230.201ZM96.1076 316.091H91.369C91.4031 315.687 91.3803 315.324 91.3008 315C91.2212 314.676 91.0849 314.398 90.8917 314.165C90.6985 313.926 90.4457 313.744 90.1332 313.619C89.8207 313.494 89.4485 313.432 89.0167 313.432C88.1871 313.432 87.4457 313.639 86.7923 314.054C86.1388 314.463 85.5962 315.051 85.1644 315.818C84.7326 316.58 84.4258 317.489 84.244 318.545C84.0849 319.568 84.0792 320.418 84.2269 321.094C84.3803 321.77 84.6786 322.276 85.1218 322.611C85.5707 322.946 86.1531 323.114 86.869 323.114C87.3462 323.114 87.7837 323.057 88.1815 322.943C88.5849 322.83 88.9428 322.668 89.2553 322.457C89.5735 322.241 89.8434 321.986 90.065 321.69C90.2923 321.389 90.4656 321.057 90.5849 320.693H95.3576C95.1758 321.432 94.8519 322.187 94.386 322.96C93.9201 323.727 93.3178 324.435 92.5792 325.082C91.8406 325.724 90.9712 326.244 89.9712 326.642C88.9712 327.04 87.8462 327.239 86.5962 327.239C84.9599 327.239 83.5479 326.881 82.3604 326.165C81.1786 325.449 80.3207 324.403 79.7866 323.028C79.2582 321.653 79.1531 319.977 79.4712 318C79.7894 316.091 80.4173 314.491 81.3548 313.202C82.2923 311.912 83.4315 310.94 84.7724 310.287C86.1133 309.634 87.5394 309.307 89.0508 309.307C90.1928 309.307 91.2156 309.457 92.119 309.759C93.0281 310.06 93.7923 310.5 94.4116 311.08C95.0366 311.653 95.4968 312.361 95.7923 313.202C96.0877 314.043 96.1928 315.006 96.1076 316.091ZM114.775 318.58C114.456 320.477 113.826 322.068 112.882 323.352C111.939 324.636 110.794 325.605 109.448 326.259C108.101 326.912 106.661 327.239 105.127 327.239C103.49 327.239 102.07 326.884 100.865 326.173C99.6609 325.463 98.783 324.423 98.2319 323.054C97.6808 321.685 97.57 320.011 97.8995 318.034C98.2063 316.136 98.8313 314.54 99.7745 313.244C100.718 311.949 101.868 310.969 103.226 310.304C104.584 309.639 106.036 309.307 107.581 309.307C109.206 309.307 110.618 309.665 111.817 310.381C113.022 311.097 113.897 312.145 114.442 313.526C114.993 314.906 115.104 316.591 114.775 318.58ZM110.002 318.034C110.161 317.034 110.172 316.193 110.036 315.511C109.9 314.824 109.613 314.307 109.175 313.96C108.738 313.608 108.15 313.432 107.411 313.432C106.57 313.432 105.826 313.636 105.178 314.045C104.53 314.455 103.993 315.043 103.567 315.81C103.141 316.577 102.843 317.5 102.672 318.58C102.49 319.591 102.473 320.432 102.621 321.102C102.775 321.773 103.076 322.276 103.525 322.611C103.979 322.946 104.57 323.114 105.297 323.114C106.127 323.114 106.86 322.915 107.496 322.517C108.138 322.119 108.669 321.543 109.09 320.787C109.516 320.031 109.82 319.114 110.002 318.034ZM118.467 309.545H124.365L126.785 319.432H126.99L132.683 309.545H138.581L135.683 327H131.047L132.717 316.909H132.581L127.058 326.864H124.262L122.047 316.841H121.91L120.206 327H115.569L118.467 309.545ZM137.929 327L140.826 309.545H148.36C149.656 309.545 150.747 309.801 151.633 310.312C152.52 310.824 153.156 311.543 153.542 312.469C153.929 313.395 154.02 314.477 153.815 315.716C153.61 316.977 153.156 318.065 152.451 318.98C151.752 319.889 150.86 320.591 149.775 321.085C148.696 321.574 147.485 321.818 146.145 321.818H141.645L142.258 318.136H145.804C146.372 318.136 146.872 318.04 147.304 317.847C147.735 317.648 148.085 317.369 148.352 317.011C148.619 316.648 148.792 316.216 148.872 315.716C148.951 315.216 148.914 314.79 148.761 314.438C148.613 314.08 148.358 313.807 147.994 313.619C147.636 313.426 147.179 313.33 146.622 313.33H144.951L142.667 327H137.929ZM153.679 327L156.576 309.545H164.11C165.406 309.545 166.5 309.781 167.392 310.253C168.284 310.724 168.926 311.403 169.318 312.29C169.71 313.176 169.804 314.239 169.599 315.477C169.395 316.727 168.943 317.781 168.244 318.639C167.551 319.491 166.667 320.139 165.593 320.582C164.525 321.02 163.326 321.239 161.997 321.239H157.497L158.11 317.557H161.656C162.213 317.557 162.701 317.489 163.122 317.352C163.542 317.21 163.883 316.989 164.145 316.688C164.406 316.381 164.576 315.977 164.656 315.477C164.735 314.977 164.696 314.571 164.537 314.259C164.377 313.94 164.113 313.707 163.744 313.56C163.375 313.406 162.917 313.33 162.372 313.33H160.701L158.417 327H153.679ZM165.235 318.989L168.27 327H163.122L160.19 318.989H165.235ZM174.478 327H169.365L178.024 309.545H184.501L187.365 327H182.251L180.547 314.352H180.41L174.478 327ZM174.683 320.114H184.297L183.683 323.659H174.069L174.683 320.114Z" fill="white"/>
<path d="M178.78 134.945V204.63H82.1496V134.945" stroke="white" stroke-width="13" stroke-linecap="round" stroke-linejoin="round"/>
<path d="M189 108H71V134.945H189V108Z" stroke="white" stroke-width="13" stroke-linecap="round" stroke-linejoin="round"/>
<path d="M119.315 156.315H140.685" stroke="white" stroke-width="13" stroke-linecap="round" stroke-linejoin="round"/>
</svg>
