<svg width="259" height="389" viewBox="0 0 259 389" fill="none" xmlns="http://www.w3.org/2000/svg">
<rect x="2.33008" y="40" width="256" height="349" rx="50" fill="#FF0000"/>
<circle cx="130.33" cy="40" r="37" fill="white" stroke="#FF0000" stroke-width="6"/>
<path d="M122.381 55L134.114 31.7614V31.5767H120.392V25.9091H141.386V31.6193L129.611 55H122.381Z" fill="#FF0000"/>
<path d="M29.3967 287L34.2262 257.909H55.1921L54.1126 264.273H41.0444L40.2489 269.273H52.2376L51.158 275.636H39.1694L38.3739 280.636H51.3853L50.3058 287H29.3967ZM84.2795 257.909L79.4499 287H72.859L64.9045 271.716H64.734L62.1772 287H54.2795L59.109 257.909H65.8136L73.6545 273.136H73.8817L76.3817 257.909H84.2795ZM95.9698 257.909L98.5266 278.42H98.7539L108.129 257.909H117.049L102.618 287H91.8221L87.0494 257.909H95.9698ZM127.749 257.909L122.919 287H115.022L119.851 257.909H127.749ZM134.219 287H125.696L140.128 257.909H150.924L155.696 287H147.174L144.333 265.92H144.105L134.219 287ZM134.56 275.523H150.583L149.56 281.432H133.537L134.56 275.523ZM158.498 287L163.328 257.909H175.885C178.044 257.909 179.867 258.302 181.353 259.088C182.84 259.874 183.91 261.006 184.564 262.483C185.217 263.96 185.373 265.731 185.032 267.795C184.691 269.879 183.939 271.635 182.774 273.065C181.618 274.486 180.146 275.565 178.356 276.304C176.576 277.033 174.578 277.398 172.362 277.398H164.862L165.885 271.261H171.794C172.722 271.261 173.536 271.148 174.237 270.92C174.938 270.684 175.506 270.314 175.941 269.812C176.377 269.301 176.661 268.629 176.794 267.795C176.926 266.962 176.86 266.285 176.595 265.764C176.33 265.234 175.889 264.846 175.274 264.599C174.658 264.344 173.896 264.216 172.987 264.216H170.203L166.396 287H158.498ZM177.76 273.648L182.816 287H174.237L169.35 273.648H177.76ZM204.088 287.398C201.758 287.398 199.826 286.953 198.292 286.062C196.758 285.163 195.679 283.875 195.054 282.199C194.429 280.513 194.315 278.496 194.713 276.148C195.092 273.894 195.873 271.924 197.056 270.239C198.25 268.553 199.751 267.241 201.559 266.304C203.377 265.366 205.413 264.898 207.667 264.898C209.315 264.898 210.759 265.153 212 265.665C213.25 266.176 214.268 266.92 215.054 267.895C215.84 268.87 216.37 270.049 216.645 271.432C216.929 272.805 216.929 274.358 216.645 276.091L216.36 277.909H196.872L197.554 273.591H209.826C209.921 272.966 209.859 272.417 209.642 271.943C209.433 271.46 209.097 271.086 208.633 270.821C208.179 270.546 207.629 270.409 206.985 270.409C206.342 270.409 205.735 270.546 205.167 270.821C204.609 271.096 204.13 271.479 203.733 271.972C203.344 272.464 203.084 273.042 202.951 273.705L202.099 278.25C201.985 278.951 202.028 279.576 202.227 280.125C202.426 280.674 202.771 281.105 203.264 281.418C203.756 281.73 204.391 281.886 205.167 281.886C205.698 281.886 206.199 281.815 206.673 281.673C207.156 281.522 207.582 281.304 207.951 281.02C208.33 280.726 208.633 280.371 208.86 279.955H216.02C215.508 281.47 214.699 282.786 213.591 283.903C212.492 285.011 211.138 285.873 209.528 286.489C207.928 287.095 206.114 287.398 204.088 287.398ZM230.696 257.909L225.867 287H218.026L222.855 257.909H230.696ZM34.5248 300.364L31.2648 320H25.9339L29.1938 300.364H34.5248ZM41.4617 320H33.7913L37.0512 300.364H44.4149C46.4347 300.364 48.1222 300.77 49.4774 301.581C50.8325 302.393 51.7945 303.553 52.3634 305.062C52.9323 306.57 53.0441 308.366 52.699 310.45C52.3666 312.457 51.6922 314.174 50.6759 315.599C49.6659 317.025 48.3747 318.114 46.8023 318.869C45.2362 319.623 43.4561 320 41.4617 320ZM39.8701 315.474H41.8069C42.7785 315.474 43.6446 315.305 44.4053 314.966C45.1723 314.621 45.8115 314.046 46.3229 313.24C46.8406 312.429 47.2146 311.32 47.4447 309.913C47.662 308.584 47.6556 307.558 47.4255 306.836C47.1954 306.107 46.7575 305.602 46.112 305.321C45.4664 305.033 44.6322 304.889 43.6095 304.889H41.6343L39.8701 315.474ZM53.593 320L56.853 300.364H71.005L70.2763 304.659H61.4553L60.9183 308.034H69.0107L68.282 312.33H60.1896L59.6527 315.705H68.4354L67.7067 320H53.593ZM90.6389 300.364L87.379 320H82.9301L77.5608 309.683H77.4458L75.7199 320H70.3889L73.6489 300.364H78.1745L83.4671 310.642H83.6205L85.308 300.364H90.6389ZM91.895 304.659L92.6237 300.364H109.69L108.962 304.659H103.055L100.524 320H95.27L97.8012 304.659H91.895ZM117.028 300.364L113.768 320H108.437L111.697 300.364H117.028ZM116.294 320L119.554 300.364H133.361L132.632 304.659H124.156L123.619 308.034H131.252L130.523 312.33H122.891L121.625 320H116.294ZM140.653 300.364L137.393 320H132.062L135.322 300.364H140.653ZM160.265 307.727H154.934C154.972 307.273 154.947 306.864 154.857 306.5C154.768 306.136 154.615 305.822 154.397 305.56C154.18 305.292 153.895 305.087 153.544 304.947C153.192 304.806 152.774 304.736 152.288 304.736C151.355 304.736 150.52 304.969 149.785 305.436C149.05 305.896 148.44 306.558 147.954 307.42C147.468 308.277 147.123 309.3 146.919 310.489C146.74 311.639 146.733 312.595 146.899 313.355C147.072 314.116 147.407 314.685 147.906 315.062C148.411 315.439 149.066 315.628 149.872 315.628C150.409 315.628 150.901 315.564 151.348 315.436C151.802 315.308 152.205 315.126 152.556 314.89C152.914 314.647 153.218 314.359 153.467 314.027C153.723 313.688 153.918 313.314 154.052 312.905H159.421C159.217 313.736 158.852 314.586 158.328 315.455C157.804 316.318 157.127 317.114 156.296 317.843C155.465 318.565 154.487 319.15 153.362 319.597C152.237 320.045 150.971 320.268 149.565 320.268C147.724 320.268 146.135 319.866 144.8 319.06C143.47 318.255 142.505 317.079 141.904 315.532C141.309 313.985 141.191 312.099 141.549 309.875C141.907 307.727 142.613 305.928 143.668 304.477C144.723 303.026 146.004 301.933 147.513 301.198C149.021 300.463 150.626 300.095 152.326 300.095C153.611 300.095 154.762 300.265 155.778 300.603C156.801 300.942 157.66 301.437 158.357 302.089C159.06 302.735 159.578 303.531 159.91 304.477C160.243 305.423 160.361 306.506 160.265 307.727ZM165.165 320H159.412L169.153 300.364H176.44L179.662 320H173.909L171.991 305.771H171.838L165.165 320ZM165.395 312.253H176.21L175.52 316.241H164.704L165.395 312.253ZM189.223 320H181.553L184.813 300.364H192.177C194.196 300.364 195.884 300.77 197.239 301.581C198.594 302.393 199.556 303.553 200.125 305.062C200.694 306.57 200.806 308.366 200.461 310.45C200.128 312.457 199.454 314.174 198.438 315.599C197.428 317.025 196.136 318.114 194.564 318.869C192.998 319.623 191.218 320 189.223 320ZM187.632 315.474H189.569C190.54 315.474 191.406 315.305 192.167 314.966C192.934 314.621 193.573 314.046 194.085 313.24C194.602 312.429 194.976 311.32 195.206 309.913C195.424 308.584 195.417 307.558 195.187 306.836C194.957 306.107 194.519 305.602 193.874 305.321C193.228 305.033 192.394 304.889 191.371 304.889H189.396L187.632 315.474ZM221.95 310.527C221.592 312.662 220.882 314.452 219.821 315.896C218.76 317.341 217.472 318.431 215.957 319.166C214.442 319.901 212.822 320.268 211.096 320.268C209.255 320.268 207.657 319.869 206.302 319.07C204.947 318.271 203.96 317.101 203.339 315.561C202.719 314.02 202.595 312.138 202.966 309.913C203.311 307.778 204.014 305.982 205.075 304.525C206.136 303.067 207.43 301.965 208.958 301.217C210.486 300.469 212.119 300.095 213.858 300.095C215.686 300.095 217.274 300.498 218.623 301.303C219.978 302.109 220.962 303.288 221.576 304.841C222.196 306.395 222.321 308.29 221.95 310.527ZM216.581 309.913C216.76 308.788 216.772 307.842 216.619 307.075C216.466 306.302 216.143 305.72 215.651 305.33C215.158 304.934 214.497 304.736 213.666 304.736C212.72 304.736 211.882 304.966 211.154 305.426C210.425 305.886 209.821 306.548 209.342 307.411C208.862 308.274 208.527 309.312 208.335 310.527C208.13 311.665 208.111 312.611 208.277 313.365C208.45 314.119 208.789 314.685 209.294 315.062C209.805 315.439 210.47 315.628 211.288 315.628C212.221 315.628 213.046 315.404 213.762 314.957C214.484 314.509 215.082 313.86 215.555 313.01C216.034 312.16 216.376 311.128 216.581 309.913ZM222.844 320L226.104 300.364H234.58C236.037 300.364 237.268 300.629 238.271 301.159C239.275 301.69 239.997 302.454 240.438 303.451C240.879 304.448 240.985 305.643 240.755 307.037C240.524 308.443 240.016 309.629 239.23 310.594C238.45 311.553 237.456 312.282 236.248 312.78C235.046 313.272 233.698 313.518 232.202 313.518H227.139L227.83 309.376H231.818C232.445 309.376 232.995 309.3 233.468 309.146C233.941 308.987 234.324 308.737 234.618 308.398C234.912 308.053 235.104 307.599 235.193 307.037C235.283 306.474 235.238 306.017 235.059 305.666C234.88 305.308 234.583 305.046 234.168 304.88C233.752 304.707 233.237 304.621 232.624 304.621H230.745L228.175 320H222.844ZM235.845 310.987L239.259 320H233.468L230.169 310.987H235.845ZM33.8192 349L36.717 331.545H44.2511C45.5465 331.545 46.6374 331.801 47.5238 332.312C48.4102 332.824 49.0465 333.543 49.4329 334.469C49.8192 335.395 49.9102 336.477 49.7056 337.716C49.5011 338.977 49.0465 340.065 48.342 340.98C47.6431 341.889 46.7511 342.591 45.6658 343.085C44.5863 343.574 43.3761 343.818 42.0352 343.818H37.5352L38.1488 340.136H41.6942C42.2624 340.136 42.7624 340.04 43.1942 339.847C43.6261 339.648 43.9755 339.369 44.2425 339.011C44.5096 338.648 44.6829 338.216 44.7624 337.716C44.842 337.216 44.805 336.79 44.6516 336.438C44.5039 336.08 44.2482 335.807 43.8846 335.619C43.5266 335.426 43.0692 335.33 42.5124 335.33H40.842L38.5579 349H33.8192ZM67.8761 340.58C67.5579 342.477 66.9272 344.068 65.984 345.352C65.0408 346.636 63.896 347.605 62.5494 348.259C61.2028 348.912 59.7624 349.239 58.2283 349.239C56.592 349.239 55.1715 348.884 53.967 348.173C52.7624 347.463 51.8846 346.423 51.3335 345.054C50.7823 343.685 50.6715 342.011 51.0011 340.034C51.3079 338.136 51.9329 336.54 52.8761 335.244C53.8192 333.949 54.9698 332.969 56.3278 332.304C57.6857 331.639 59.1374 331.307 60.6829 331.307C62.3079 331.307 63.7198 331.665 64.9187 332.381C66.1232 333.097 66.9982 334.145 67.5437 335.526C68.0948 336.906 68.2056 338.591 67.8761 340.58ZM63.1033 340.034C63.2624 339.034 63.2738 338.193 63.1374 337.511C63.0011 336.824 62.7141 336.307 62.2766 335.96C61.8391 335.608 61.2511 335.432 60.5124 335.432C59.6715 335.432 58.9272 335.636 58.2795 336.045C57.6317 336.455 57.0948 337.043 56.6687 337.81C56.2425 338.577 55.9442 339.5 55.7738 340.58C55.592 341.591 55.5749 342.432 55.7227 343.102C55.8761 343.773 56.1772 344.276 56.6261 344.611C57.0806 344.946 57.6715 345.114 58.3988 345.114C59.2283 345.114 59.9613 344.915 60.5977 344.517C61.2397 344.119 61.771 343.543 62.1914 342.787C62.6175 342.031 62.9215 341.114 63.1033 340.034ZM68.6708 349L71.5685 331.545H79.1026C80.3981 331.545 81.4918 331.781 82.3839 332.253C83.2759 332.724 83.918 333.403 84.31 334.29C84.7021 335.176 84.7958 336.239 84.5913 337.477C84.3867 338.727 83.935 339.781 83.2362 340.639C82.543 341.491 81.6594 342.139 80.5856 342.582C79.5174 343.02 78.3185 343.239 76.989 343.239H72.489L73.1026 339.557H76.6481C77.2049 339.557 77.6935 339.489 78.114 339.352C78.5344 339.21 78.8754 338.989 79.1367 338.688C79.3981 338.381 79.5685 337.977 79.6481 337.477C79.7276 336.977 79.6879 336.571 79.5288 336.259C79.3697 335.94 79.1055 335.707 78.7362 335.56C78.3668 335.406 77.9094 335.33 77.364 335.33H75.6935L73.4094 349H68.6708ZM80.2276 340.989L83.2617 349H78.114L75.1822 340.989H80.2276ZM94.1495 349L91.8995 331.545H97.1836L97.7972 342.284H97.9336L102.536 331.545H106.695L107.752 342.318H107.888L112.047 331.545H117.331L109.286 349H104.752L103.422 339.25H103.286L98.6836 349H94.1495ZM115.968 349L118.865 331.545H123.604L122.479 338.364H128.752L129.877 331.545H134.615L131.718 349H126.979L128.104 342.182H121.831L120.706 349H115.968ZM138.502 349H133.388L142.047 331.545H148.525L151.388 349H146.275L144.57 336.352H144.434L138.502 349ZM138.706 342.114H148.32L147.706 345.659H138.093L138.706 342.114ZM163.776 337C163.827 336.438 163.691 335.997 163.367 335.679C163.043 335.355 162.498 335.193 161.73 335.193C161.242 335.193 160.833 335.25 160.503 335.364C160.179 335.477 159.926 335.634 159.745 335.832C159.569 336.031 159.458 336.261 159.412 336.523C159.361 336.727 159.364 336.915 159.421 337.085C159.483 337.25 159.6 337.401 159.77 337.537C159.946 337.673 160.176 337.795 160.461 337.903C160.75 338.011 161.094 338.108 161.492 338.193L162.855 338.5C163.787 338.705 164.569 338.974 165.199 339.31C165.836 339.639 166.336 340.031 166.699 340.486C167.063 340.94 167.301 341.449 167.415 342.011C167.534 342.574 167.537 343.187 167.424 343.852C167.23 345 166.784 345.972 166.086 346.767C165.387 347.562 164.475 348.168 163.35 348.582C162.225 348.997 160.924 349.205 159.446 349.205C157.935 349.205 156.651 348.98 155.594 348.531C154.543 348.077 153.782 347.384 153.31 346.452C152.844 345.514 152.73 344.318 152.969 342.864H157.469C157.401 343.398 157.458 343.847 157.64 344.21C157.821 344.574 158.114 344.849 158.517 345.037C158.921 345.224 159.424 345.318 160.026 345.318C160.537 345.318 160.975 345.256 161.338 345.131C161.702 345.006 161.989 344.832 162.199 344.611C162.409 344.389 162.537 344.136 162.583 343.852C162.628 343.591 162.583 343.358 162.446 343.153C162.31 342.949 162.063 342.764 161.705 342.599C161.347 342.435 160.855 342.284 160.23 342.148L158.56 341.773C157.077 341.432 155.958 340.869 155.202 340.085C154.446 339.301 154.179 338.227 154.401 336.864C154.583 335.75 155.04 334.778 155.773 333.949C156.512 333.114 157.449 332.466 158.586 332.006C159.728 331.54 160.992 331.307 162.378 331.307C163.787 331.307 164.966 331.543 165.915 332.014C166.87 332.486 167.554 333.148 167.969 334C168.39 334.852 168.503 335.852 168.31 337H163.776ZM170.147 335.364L170.794 331.545H185.965L185.317 335.364H180.067L177.817 349H173.147L175.397 335.364H170.147ZM187.181 349H182.068L190.727 331.545H197.204L200.068 349H194.954L193.25 336.352H193.113L187.181 349ZM187.386 342.114H197L196.386 345.659H186.772L187.386 342.114ZM201.749 349L204.647 331.545H212.181C213.476 331.545 214.567 331.801 215.453 332.312C216.34 332.824 216.976 333.543 217.363 334.469C217.749 335.395 217.84 336.477 217.635 337.716C217.431 338.977 216.976 340.065 216.272 340.98C215.573 341.889 214.681 342.591 213.596 343.085C212.516 343.574 211.306 343.818 209.965 343.818H205.465L206.078 340.136H209.624C210.192 340.136 210.692 340.04 211.124 339.847C211.556 339.648 211.905 339.369 212.172 339.011C212.439 338.648 212.613 338.216 212.692 337.716C212.772 337.216 212.735 336.79 212.581 336.438C212.434 336.08 212.178 335.807 211.814 335.619C211.456 335.426 210.999 335.33 210.442 335.33H208.772L206.488 349H201.749ZM217.499 349L220.397 331.545H227.931C229.226 331.545 230.317 331.801 231.203 332.312C232.09 332.824 232.726 333.543 233.113 334.469C233.499 335.395 233.59 336.477 233.385 337.716C233.181 338.977 232.726 340.065 232.022 340.98C231.323 341.889 230.431 342.591 229.346 343.085C228.266 343.574 227.056 343.818 225.715 343.818H221.215L221.828 340.136H225.374C225.942 340.136 226.442 340.04 226.874 339.847C227.306 339.648 227.655 339.369 227.922 339.011C228.189 338.648 228.363 338.216 228.442 337.716C228.522 337.216 228.485 336.79 228.331 336.438C228.184 336.08 227.928 335.807 227.564 335.619C227.206 335.426 226.749 335.33 226.192 335.33H224.522L222.238 349H217.499Z" fill="white"/>
<path d="M75.5881 203L56.2841 137.545H76.0994L85.0483 177.815H85.5597L96.1705 137.545H111.767L122.378 177.943H122.889L131.838 137.545H151.653L132.349 203H115.347L104.224 166.438H103.713L92.5909 203H75.5881ZM157.406 203V137.545H185.659C190.517 137.545 194.768 138.504 198.411 140.422C202.055 142.339 204.888 145.035 206.913 148.508C208.937 151.981 209.949 156.04 209.949 160.685C209.949 165.372 208.905 169.431 206.817 172.862C204.75 176.292 201.842 178.934 198.092 180.788C194.363 182.641 190.006 183.568 185.02 183.568H168.145V169.761H181.44C183.528 169.761 185.308 169.399 186.778 168.675C188.269 167.929 189.409 166.874 190.197 165.511C191.007 164.147 191.412 162.538 191.412 160.685C191.412 158.81 191.007 157.212 190.197 155.891C189.409 154.548 188.269 153.526 186.778 152.822C185.308 152.098 183.528 151.736 181.44 151.736H175.176V203H157.406Z" fill="white"/>
</svg>
