<svg width="256" height="389" viewBox="0 0 256 389" fill="none" xmlns="http://www.w3.org/2000/svg">
<rect y="40" width="256" height="349" rx="50" fill="#FF0000"/>
<circle cx="128" cy="40" r="37" fill="white" stroke="#FF0000" stroke-width="6"/>
<path d="M128.21 55.3977C125.994 55.3977 124.029 55.0189 122.315 54.2614C120.611 53.4943 119.266 52.4384 118.281 51.0938C117.296 49.7491 116.795 48.2008 116.776 46.4489H123.849C123.878 47.0833 124.081 47.6468 124.46 48.1392C124.839 48.6222 125.355 49.0009 126.009 49.2756C126.662 49.5502 127.405 49.6875 128.239 49.6875C129.072 49.6875 129.806 49.5407 130.44 49.2472C131.084 48.9441 131.586 48.5322 131.946 48.0114C132.306 47.4811 132.481 46.875 132.472 46.1932C132.481 45.5114 132.287 44.9053 131.889 44.375C131.491 43.8447 130.928 43.4328 130.199 43.1392C129.479 42.8456 128.627 42.6989 127.642 42.6989H124.815V37.6989H127.642C128.504 37.6989 129.261 37.5568 129.915 37.2727C130.578 36.9886 131.094 36.5909 131.463 36.0795C131.832 35.5587 132.012 34.9621 132.003 34.2898C132.012 33.6364 131.856 33.0634 131.534 32.571C131.222 32.0691 130.781 31.6809 130.213 31.4062C129.654 31.1316 129.006 30.9943 128.267 30.9943C127.491 30.9943 126.785 31.1316 126.151 31.4062C125.526 31.6809 125.028 32.0691 124.659 32.571C124.29 33.0729 124.096 33.6553 124.077 34.3182H117.358C117.377 32.5852 117.86 31.0606 118.807 29.7443C119.754 28.4186 121.042 27.3816 122.67 26.6335C124.309 25.8854 126.174 25.5114 128.267 25.5114C130.35 25.5114 132.183 25.8759 133.764 26.6051C135.346 27.3343 136.577 28.3286 137.457 29.5881C138.338 30.8381 138.778 32.2538 138.778 33.8352C138.788 35.4735 138.253 36.8229 137.173 37.8835C136.103 38.9441 134.725 39.5975 133.04 39.8438V40.071C135.294 40.3362 136.993 41.0653 138.139 42.2585C139.295 43.4517 139.867 44.9432 139.858 46.733C139.858 48.4186 139.361 49.9148 138.366 51.2216C137.382 52.5189 136.009 53.5417 134.247 54.2898C132.495 55.0284 130.483 55.3977 128.21 55.3977Z" fill="#FF0000"/>
<path d="M59.4091 264.455H53.0909C53.1364 263.917 53.1061 263.432 53 263C52.8939 262.568 52.7121 262.197 52.4545 261.886C52.197 261.568 51.8598 261.326 51.4432 261.159C51.0265 260.992 50.5303 260.909 49.9545 260.909C48.8485 260.909 47.8598 261.186 46.9886 261.739C46.1174 262.284 45.3939 263.068 44.8182 264.091C44.2424 265.106 43.8333 266.318 43.5909 267.727C43.3788 269.091 43.3712 270.223 43.5682 271.125C43.7727 272.027 44.1705 272.701 44.7614 273.148C45.3598 273.595 46.1364 273.818 47.0909 273.818C47.7273 273.818 48.3106 273.742 48.8409 273.591C49.3788 273.439 49.8561 273.223 50.2727 272.943C50.697 272.655 51.0568 272.314 51.3523 271.92C51.6553 271.519 51.8864 271.076 52.0455 270.591H58.4091C58.1667 271.576 57.7348 272.583 57.1136 273.614C56.4924 274.636 55.6894 275.58 54.7045 276.443C53.7197 277.299 52.5606 277.992 51.2273 278.523C49.8939 279.053 48.3939 279.318 46.7273 279.318C44.5455 279.318 42.6629 278.841 41.0795 277.886C39.5038 276.932 38.3598 275.538 37.6477 273.705C36.9432 271.871 36.803 269.636 37.2273 267C37.6515 264.455 38.4886 262.322 39.7386 260.602C40.9886 258.883 42.5076 257.587 44.2955 256.716C46.0833 255.845 47.9848 255.409 50 255.409C51.5227 255.409 52.8864 255.61 54.0909 256.011C55.303 256.413 56.322 257 57.1477 257.773C57.9811 258.538 58.5947 259.481 58.9886 260.602C59.3826 261.723 59.5227 263.008 59.4091 264.455ZM59.8892 279L63.7528 255.727H70.071L68.571 264.818H76.9347L78.4347 255.727H84.7528L80.8892 279H74.571L76.071 269.909H67.7074L66.2074 279H59.8892ZM83.8892 279L87.7528 255.727H104.526L103.662 260.818H93.2074L92.571 264.818H102.162L101.298 269.909H91.7074L91.071 273.909H101.48L100.616 279H83.8892ZM114.205 270.364H119.114L120.523 272.591L122.932 276L126.068 280.727H120.477L118.25 277.5L116.795 274.818L114.205 270.364ZM128.205 267.773C127.78 270.303 126.939 272.424 125.682 274.136C124.424 275.848 122.898 277.14 121.102 278.011C119.307 278.883 117.386 279.318 115.341 279.318C113.159 279.318 111.265 278.845 109.659 277.898C108.053 276.951 106.883 275.564 106.148 273.739C105.413 271.913 105.265 269.682 105.705 267.045C106.114 264.515 106.947 262.386 108.205 260.659C109.462 258.932 110.996 257.625 112.807 256.739C114.617 255.852 116.553 255.409 118.614 255.409C120.78 255.409 122.663 255.886 124.261 256.841C125.867 257.795 127.034 259.193 127.761 261.034C128.496 262.875 128.644 265.121 128.205 267.773ZM121.841 267.045C122.053 265.712 122.068 264.591 121.886 263.682C121.705 262.765 121.322 262.076 120.739 261.614C120.155 261.144 119.371 260.909 118.386 260.909C117.265 260.909 116.273 261.182 115.409 261.727C114.545 262.273 113.83 263.057 113.261 264.08C112.693 265.102 112.295 266.333 112.068 267.773C111.826 269.121 111.803 270.242 112 271.136C112.205 272.03 112.606 272.701 113.205 273.148C113.811 273.595 114.598 273.818 115.568 273.818C116.674 273.818 117.652 273.553 118.5 273.023C119.356 272.492 120.064 271.723 120.625 270.716C121.193 269.708 121.598 268.485 121.841 267.045ZM146.901 255.727H153.219L150.741 270.636C150.454 272.409 149.779 273.943 148.719 275.239C147.666 276.527 146.325 277.523 144.696 278.227C143.067 278.924 141.257 279.273 139.264 279.273C137.257 279.273 135.56 278.924 134.173 278.227C132.787 277.523 131.779 276.527 131.151 275.239C130.529 273.943 130.363 272.409 130.651 270.636L133.128 255.727H139.446L137.06 270.091C136.946 270.811 137.003 271.451 137.23 272.011C137.457 272.572 137.825 273.015 138.332 273.341C138.84 273.659 139.454 273.818 140.173 273.818C140.901 273.818 141.571 273.659 142.185 273.341C142.806 273.015 143.321 272.572 143.73 272.011C144.139 271.451 144.401 270.811 144.514 270.091L146.901 255.727ZM152.358 279L156.222 255.727H172.994L172.131 260.818H161.676L161.04 264.818H170.631L169.767 269.909H160.176L159.54 273.909H169.949L169.085 279H152.358ZM178.31 279H171.491L183.037 255.727H191.673L195.491 279H188.673L186.401 262.136H186.219L178.31 279ZM178.582 269.818H191.401L190.582 274.545H177.764L178.582 269.818ZM197.733 279L201.597 255.727H211.642C213.369 255.727 214.828 256.042 216.017 256.67C217.206 257.299 218.062 258.205 218.585 259.386C219.108 260.568 219.233 261.985 218.96 263.636C218.688 265.303 218.085 266.708 217.153 267.852C216.229 268.989 215.051 269.852 213.619 270.443C212.195 271.027 210.597 271.318 208.824 271.318H202.824L203.642 266.409H208.369C209.112 266.409 209.763 266.318 210.324 266.136C210.884 265.947 211.339 265.652 211.688 265.25C212.036 264.841 212.263 264.303 212.369 263.636C212.475 262.97 212.422 262.428 212.21 262.011C211.998 261.587 211.646 261.277 211.153 261.08C210.661 260.875 210.051 260.773 209.324 260.773H207.097L204.051 279H197.733ZM213.142 268.318L217.188 279H210.324L206.415 268.318H213.142ZM26.9267 297.602H29.9949L30.8755 298.994L32.3812 301.125L34.3414 304.08H30.8471L29.4551 302.062L28.546 300.386L26.9267 297.602ZM35.6767 295.983C35.4115 297.564 34.8859 298.89 34.1 299.96C33.314 301.03 32.3599 301.838 31.2377 302.382C30.1156 302.927 28.9153 303.199 27.6369 303.199C26.2733 303.199 25.0895 302.903 24.0858 302.311C23.082 301.719 22.3504 300.853 21.8912 299.712C21.4319 298.571 21.3395 297.176 21.6142 295.528C21.8699 293.947 22.3907 292.616 23.1767 291.537C23.9627 290.457 24.9215 289.641 26.0531 289.087C27.1847 288.533 28.3945 288.256 29.6824 288.256C31.0365 288.256 32.2131 288.554 33.2122 289.151C34.216 289.747 34.9451 290.621 35.3997 291.771C35.859 292.922 35.9513 294.326 35.6767 295.983ZM31.6994 295.528C31.832 294.695 31.8414 293.994 31.7278 293.426C31.6142 292.853 31.3751 292.422 31.0105 292.134C30.6459 291.84 30.1558 291.693 29.5403 291.693C28.8395 291.693 28.2193 291.864 27.6795 292.205C27.1397 292.545 26.6923 293.036 26.3372 293.675C25.9821 294.314 25.7335 295.083 25.5914 295.983C25.4399 296.826 25.4257 297.527 25.5488 298.085C25.6767 298.644 25.9276 299.063 26.3017 299.342C26.6805 299.622 27.1729 299.761 27.7789 299.761C28.4702 299.761 29.081 299.596 29.6113 299.264C30.1464 298.933 30.5891 298.452 30.9395 297.822C31.2946 297.193 31.5479 296.428 31.6994 295.528ZM47.3617 288.455H51.3105L49.7623 297.773C49.5823 298.881 49.1609 299.839 48.498 300.649C47.8399 301.454 47.0018 302.077 45.9838 302.517C44.9658 302.953 43.8342 303.17 42.589 303.17C41.3342 303.17 40.2736 302.953 39.4071 302.517C38.5407 302.077 37.9109 301.454 37.5179 300.649C37.1297 299.839 37.0255 298.881 37.2054 297.773L38.7537 288.455H42.7026L41.2111 297.432C41.1401 297.882 41.1756 298.282 41.3176 298.632C41.4597 298.982 41.6893 299.259 42.0066 299.463C42.3238 299.662 42.7073 299.761 43.1571 299.761C43.6117 299.761 44.0307 299.662 44.4142 299.463C44.8025 299.259 45.1245 298.982 45.3801 298.632C45.6358 298.282 45.7992 297.882 45.8702 297.432L47.3617 288.455ZM50.7725 303L53.1873 288.455H63.6703L63.1305 291.636H56.5964L56.1987 294.136H62.193L61.6532 297.318H55.6589L55.2612 299.818H61.7669L61.2271 303H50.7725ZM67.1983 303L69.6131 288.455H73.562L71.687 299.818H77.5676L77.0279 303H67.1983ZM93.3134 295.983C93.0482 297.564 92.5227 298.89 91.7367 299.96C90.9507 301.03 89.9966 301.838 88.8745 302.382C87.7523 302.927 86.552 303.199 85.2736 303.199C83.91 303.199 82.7263 302.903 81.7225 302.311C80.7187 301.719 79.9872 300.853 79.5279 299.712C79.0686 298.571 78.9763 297.176 79.2509 295.528C79.5066 293.947 80.0274 292.616 80.8134 291.537C81.5994 290.457 82.5582 289.641 83.6898 289.087C84.8214 288.533 86.0312 288.256 87.3191 288.256C88.6732 288.256 89.8498 288.554 90.8489 289.151C91.8527 289.747 92.5819 290.621 93.0364 291.771C93.4957 292.922 93.588 294.326 93.3134 295.983ZM89.3361 295.528C89.4687 294.695 89.4782 293.994 89.3645 293.426C89.2509 292.853 89.0118 292.422 88.6472 292.134C88.2826 291.84 87.7926 291.693 87.177 291.693C86.4763 291.693 85.856 291.864 85.3162 292.205C84.7765 292.545 84.329 293.036 83.9739 293.675C83.6188 294.314 83.3702 295.083 83.2282 295.983C83.0766 296.826 83.0624 297.527 83.1855 298.085C83.3134 298.644 83.5643 299.063 83.9384 299.342C84.3172 299.622 84.8096 299.761 85.4157 299.761C86.1069 299.761 86.7177 299.596 87.248 299.264C87.7831 298.933 88.2258 298.452 88.5762 297.822C88.9313 297.193 89.1846 296.428 89.3361 295.528ZM103.464 293C103.507 292.531 103.393 292.164 103.123 291.899C102.854 291.629 102.399 291.494 101.76 291.494C101.353 291.494 101.012 291.542 100.737 291.636C100.467 291.731 100.256 291.861 100.105 292.027C99.9582 292.193 99.8658 292.384 99.8279 292.602C99.7853 292.773 99.7877 292.929 99.835 293.071C99.8871 293.208 99.9842 293.334 100.126 293.447C100.273 293.561 100.465 293.663 100.702 293.753C100.943 293.843 101.229 293.923 101.561 293.994L102.697 294.25C103.474 294.42 104.125 294.645 104.65 294.925C105.181 295.199 105.597 295.526 105.9 295.905C106.203 296.284 106.402 296.707 106.497 297.176C106.596 297.645 106.599 298.156 106.504 298.71C106.343 299.667 105.971 300.476 105.389 301.139C104.807 301.802 104.047 302.306 103.109 302.652C102.172 302.998 101.087 303.17 99.8564 303.17C98.5969 303.17 97.5268 302.983 96.6461 302.609C95.7702 302.231 95.1357 301.653 94.7427 300.876C94.3545 300.095 94.2598 299.098 94.4586 297.886H98.2086C98.1518 298.331 98.1992 298.705 98.3507 299.009C98.5022 299.312 98.746 299.541 99.0822 299.697C99.4184 299.854 99.8374 299.932 100.339 299.932C100.765 299.932 101.13 299.88 101.433 299.776C101.736 299.671 101.975 299.527 102.15 299.342C102.326 299.158 102.432 298.947 102.47 298.71C102.508 298.492 102.47 298.298 102.356 298.128C102.243 297.957 102.037 297.804 101.738 297.666C101.44 297.529 101.031 297.403 100.51 297.29L99.1177 296.977C97.8819 296.693 96.9492 296.224 96.3194 295.571C95.6897 294.918 95.4672 294.023 95.6518 292.886C95.8033 291.958 96.1845 291.149 96.7953 290.457C97.4108 289.761 98.1921 289.222 99.139 288.838C100.091 288.45 101.144 288.256 102.3 288.256C103.474 288.256 104.456 288.452 105.247 288.845C106.042 289.238 106.613 289.79 106.959 290.5C107.309 291.21 107.404 292.044 107.243 293H103.464ZM111.28 303L113.695 288.455H119.974C121.053 288.455 121.962 288.668 122.701 289.094C123.439 289.52 123.97 290.119 124.292 290.891C124.614 291.662 124.689 292.564 124.519 293.597C124.349 294.648 123.97 295.554 123.383 296.317C122.8 297.074 122.057 297.659 121.153 298.071C120.253 298.478 119.244 298.682 118.127 298.682H114.377L114.888 295.614H117.843C118.316 295.614 118.733 295.533 119.093 295.372C119.453 295.206 119.744 294.974 119.966 294.676C120.189 294.373 120.333 294.013 120.4 293.597C120.466 293.18 120.435 292.825 120.307 292.531C120.184 292.233 119.971 292.006 119.668 291.849C119.37 291.688 118.989 291.608 118.525 291.608H117.133L115.229 303H111.28ZM124.405 303L126.82 288.455H133.099C134.178 288.455 135.09 288.651 135.833 289.044C136.576 289.437 137.111 290.003 137.438 290.741C137.765 291.48 137.843 292.366 137.672 293.398C137.502 294.439 137.126 295.318 136.543 296.033C135.965 296.743 135.229 297.283 134.334 297.652C133.444 298.017 132.445 298.199 131.337 298.199H127.587L128.099 295.131H131.053C131.517 295.131 131.924 295.074 132.275 294.96C132.625 294.842 132.909 294.657 133.127 294.406C133.345 294.151 133.487 293.814 133.553 293.398C133.619 292.981 133.586 292.643 133.454 292.382C133.321 292.117 133.101 291.923 132.793 291.8C132.485 291.672 132.104 291.608 131.65 291.608H130.258L128.354 303H124.405ZM134.036 296.324L136.564 303H132.275L129.831 296.324H134.036ZM153.216 295.983C152.951 297.564 152.425 298.89 151.639 299.96C150.853 301.03 149.899 301.838 148.777 302.382C147.655 302.927 146.454 303.199 145.176 303.199C143.812 303.199 142.629 302.903 141.625 302.311C140.621 301.719 139.89 300.853 139.43 299.712C138.971 298.571 138.879 297.176 139.153 295.528C139.409 293.947 139.93 292.616 140.716 291.537C141.502 290.457 142.461 289.641 143.592 289.087C144.724 288.533 145.934 288.256 147.221 288.256C148.576 288.256 149.752 288.554 150.751 289.151C151.755 289.747 152.484 290.621 152.939 291.771C153.398 292.922 153.49 294.326 153.216 295.983ZM149.238 295.528C149.371 294.695 149.381 293.994 149.267 293.426C149.153 292.853 148.914 292.422 148.55 292.134C148.185 291.84 147.695 291.693 147.079 291.693C146.379 291.693 145.758 291.864 145.219 292.205C144.679 292.545 144.231 293.036 143.876 293.675C143.521 294.314 143.273 295.083 143.131 295.983C142.979 296.826 142.965 297.527 143.088 298.085C143.216 298.644 143.467 299.063 143.841 299.342C144.22 299.622 144.712 299.761 145.318 299.761C146.009 299.761 146.62 299.596 147.15 299.264C147.685 298.933 148.128 298.452 148.479 297.822C148.834 297.193 149.087 296.428 149.238 295.528ZM159.56 303H153.878L156.293 288.455H161.747C163.244 288.455 164.494 288.755 165.497 289.357C166.501 289.958 167.214 290.817 167.635 291.935C168.057 293.052 168.139 294.383 167.884 295.926C167.637 297.413 167.138 298.684 166.385 299.74C165.637 300.796 164.681 301.603 163.516 302.162C162.356 302.721 161.037 303 159.56 303ZM158.381 299.648H159.816C160.535 299.648 161.177 299.522 161.74 299.271C162.308 299.016 162.782 298.589 163.161 297.993C163.544 297.392 163.821 296.57 163.992 295.528C164.153 294.544 164.148 293.784 163.977 293.249C163.807 292.709 163.483 292.335 163.004 292.126C162.526 291.913 161.908 291.807 161.151 291.807H159.688L158.381 299.648ZM179.569 288.455H183.518L181.969 297.773C181.789 298.881 181.368 299.839 180.705 300.649C180.047 301.454 179.209 302.077 178.191 302.517C177.173 302.953 176.041 303.17 174.796 303.17C173.541 303.17 172.481 302.953 171.614 302.517C170.748 302.077 170.118 301.454 169.725 300.649C169.337 299.839 169.233 298.881 169.412 297.773L170.961 288.455H174.91L173.418 297.432C173.347 297.882 173.383 298.282 173.525 298.632C173.667 298.982 173.896 299.259 174.214 299.463C174.531 299.662 174.914 299.761 175.364 299.761C175.819 299.761 176.238 299.662 176.621 299.463C177.01 299.259 177.331 298.982 177.587 298.632C177.843 298.282 178.006 297.882 178.077 297.432L179.569 288.455ZM198.051 293.909H194.102C194.13 293.573 194.111 293.27 194.045 293C193.979 292.73 193.865 292.498 193.704 292.304C193.543 292.105 193.332 291.954 193.072 291.849C192.811 291.745 192.501 291.693 192.142 291.693C191.45 291.693 190.832 291.866 190.288 292.212C189.743 292.553 189.291 293.043 188.931 293.682C188.571 294.316 188.316 295.074 188.164 295.955C188.032 296.807 188.027 297.515 188.15 298.078C188.278 298.642 188.526 299.063 188.896 299.342C189.27 299.622 189.755 299.761 190.352 299.761C190.749 299.761 191.114 299.714 191.445 299.619C191.782 299.525 192.08 299.39 192.34 299.214C192.606 299.035 192.83 298.821 193.015 298.575C193.204 298.324 193.349 298.047 193.448 297.744H197.426C197.274 298.36 197.004 298.99 196.616 299.634C196.228 300.273 195.726 300.862 195.11 301.402C194.495 301.937 193.77 302.37 192.937 302.702C192.104 303.033 191.166 303.199 190.124 303.199C188.761 303.199 187.584 302.901 186.595 302.304C185.61 301.707 184.895 300.836 184.45 299.69C184.009 298.545 183.922 297.148 184.187 295.5C184.452 293.909 184.975 292.576 185.757 291.501C186.538 290.427 187.487 289.617 188.605 289.072C189.722 288.528 190.91 288.256 192.17 288.256C193.122 288.256 193.974 288.381 194.727 288.632C195.484 288.883 196.121 289.25 196.637 289.733C197.158 290.211 197.542 290.801 197.788 291.501C198.034 292.202 198.122 293.005 198.051 293.909ZM199.828 291.636L200.368 288.455H213.01L212.47 291.636H208.095L206.22 303H202.328L204.203 291.636H199.828ZM226.653 295.983C226.388 297.564 225.863 298.89 225.077 299.96C224.291 301.03 223.336 301.838 222.214 302.382C221.092 302.927 219.892 303.199 218.613 303.199C217.25 303.199 216.066 302.903 215.062 302.311C214.059 301.719 213.327 300.853 212.868 299.712C212.408 298.571 212.316 297.176 212.591 295.528C212.846 293.947 213.367 292.616 214.153 291.537C214.939 290.457 215.898 289.641 217.03 289.087C218.161 288.533 219.371 288.256 220.659 288.256C222.013 288.256 223.19 288.554 224.189 289.151C225.193 289.747 225.922 290.621 226.376 291.771C226.836 292.922 226.928 294.326 226.653 295.983ZM222.676 295.528C222.809 294.695 222.818 293.994 222.704 293.426C222.591 292.853 222.352 292.422 221.987 292.134C221.622 291.84 221.132 291.693 220.517 291.693C219.816 291.693 219.196 291.864 218.656 292.205C218.116 292.545 217.669 293.036 217.314 293.675C216.959 294.314 216.71 295.083 216.568 295.983C216.416 296.826 216.402 297.527 216.525 298.085C216.653 298.644 216.904 299.063 217.278 299.342C217.657 299.622 218.149 299.761 218.756 299.761C219.447 299.761 220.058 299.596 220.588 299.264C221.123 298.933 221.566 298.452 221.916 297.822C222.271 297.193 222.524 296.428 222.676 295.528ZM236.804 293C236.847 292.531 236.733 292.164 236.463 291.899C236.193 291.629 235.739 291.494 235.1 291.494C234.692 291.494 234.352 291.542 234.077 291.636C233.807 291.731 233.596 291.861 233.445 292.027C233.298 292.193 233.206 292.384 233.168 292.602C233.125 292.773 233.128 292.929 233.175 293.071C233.227 293.208 233.324 293.334 233.466 293.447C233.613 293.561 233.805 293.663 234.041 293.753C234.283 293.843 234.569 293.923 234.901 293.994L236.037 294.25C236.814 294.42 237.465 294.645 237.99 294.925C238.521 295.199 238.937 295.526 239.24 295.905C239.543 296.284 239.742 296.707 239.837 297.176C239.936 297.645 239.939 298.156 239.844 298.71C239.683 299.667 239.311 300.476 238.729 301.139C238.146 301.802 237.387 302.306 236.449 302.652C235.512 302.998 234.427 303.17 233.196 303.17C231.937 303.17 230.867 302.983 229.986 302.609C229.11 302.231 228.476 301.653 228.083 300.876C227.694 300.095 227.6 299.098 227.798 297.886H231.548C231.492 298.331 231.539 298.705 231.691 299.009C231.842 299.312 232.086 299.541 232.422 299.697C232.758 299.854 233.177 299.932 233.679 299.932C234.105 299.932 234.47 299.88 234.773 299.776C235.076 299.671 235.315 299.527 235.49 299.342C235.665 299.158 235.772 298.947 235.81 298.71C235.848 298.492 235.81 298.298 235.696 298.128C235.583 297.957 235.377 297.804 235.078 297.666C234.78 297.529 234.37 297.403 233.85 297.29L232.458 296.977C231.222 296.693 230.289 296.224 229.659 295.571C229.03 294.918 228.807 294.023 228.992 292.886C229.143 291.958 229.524 291.149 230.135 290.457C230.751 289.761 231.532 289.222 232.479 288.838C233.431 288.45 234.484 288.256 235.639 288.256C236.814 288.256 237.796 288.452 238.587 288.845C239.382 289.238 239.953 289.79 240.298 290.5C240.649 291.21 240.744 292.044 240.583 293H236.804ZM44.7454 327H39.0636L41.4783 312.455H46.9329C48.4291 312.455 49.6791 312.755 50.6829 313.357C51.6867 313.958 52.3993 314.817 52.8207 315.935C53.2421 317.052 53.3249 318.383 53.0692 319.926C52.823 321.413 52.3235 322.684 51.5707 323.74C50.8226 324.796 49.8661 325.603 48.7013 326.162C47.5413 326.721 46.2227 327 44.7454 327ZM43.5664 323.648H45.0011C45.7208 323.648 46.3623 323.522 46.9258 323.271C47.494 323.016 47.9674 322.589 48.3462 321.993C48.7298 321.392 49.0067 320.57 49.1772 319.528C49.3382 318.544 49.3335 317.784 49.163 317.249C48.9925 316.709 48.6682 316.335 48.19 316.126C47.7118 315.913 47.0939 315.807 46.3363 315.807H44.8732L43.5664 323.648ZM53.7315 327L56.1463 312.455H66.6293L66.0895 315.636H59.5554L59.1577 318.136H65.152L64.6122 321.318H58.6179L58.2202 323.818H64.7259L64.1861 327H53.7315ZM66.1729 327L68.5877 312.455H72.5366L70.6616 323.818H76.5423L76.0025 327H66.1729ZM96.6541 317.909H92.7053C92.7337 317.573 92.7147 317.27 92.6484 317C92.5821 316.73 92.4685 316.498 92.3075 316.304C92.1465 316.105 91.9358 315.954 91.6754 315.849C91.415 315.745 91.1049 315.693 90.745 315.693C90.0537 315.693 89.4358 315.866 88.8913 316.212C88.3468 316.553 87.8946 317.043 87.5348 317.682C87.175 318.316 86.9193 319.074 86.7678 319.955C86.6352 320.807 86.6304 321.515 86.7536 322.078C86.8814 322.642 87.13 323.063 87.4993 323.342C87.8733 323.622 88.3587 323.761 88.9553 323.761C89.353 323.761 89.7176 323.714 90.049 323.619C90.3852 323.525 90.6835 323.39 90.9439 323.214C91.209 323.035 91.4339 322.821 91.6186 322.575C91.808 322.324 91.9524 322.047 92.0518 321.744H96.0291C95.8776 322.36 95.6077 322.99 95.2195 323.634C94.8312 324.273 94.3293 324.862 93.7138 325.402C93.0982 325.937 92.3738 326.37 91.5405 326.702C90.7071 327.033 89.7696 327.199 88.728 327.199C87.3643 327.199 86.1877 326.901 85.1982 326.304C84.2133 325.707 83.4983 324.836 83.0533 323.69C82.6129 322.545 82.5253 321.148 82.7905 319.5C83.0556 317.909 83.5788 316.576 84.3601 315.501C85.1413 314.427 86.0907 313.617 87.2081 313.072C88.3255 312.528 89.514 312.256 90.7734 312.256C91.7251 312.256 92.5774 312.381 93.3303 312.632C94.0878 312.883 94.7247 313.25 95.2408 313.733C95.7616 314.211 96.1451 314.801 96.3913 315.501C96.6375 316.202 96.7251 317.005 96.6541 317.909ZM100.283 327H96.022L103.238 312.455H108.636L111.022 327H106.761L105.34 316.46H105.227L100.283 327ZM100.454 321.261H108.465L107.954 324.216H99.9425L100.454 321.261ZM112.423 327L114.838 312.455H121.116C122.196 312.455 123.107 312.651 123.85 313.044C124.594 313.437 125.129 314.003 125.456 314.741C125.782 315.48 125.86 316.366 125.69 317.398C125.52 318.439 125.143 319.318 124.561 320.033C123.983 320.743 123.247 321.283 122.352 321.652C121.462 322.017 120.463 322.199 119.355 322.199H115.605L116.116 319.131H119.071C119.535 319.131 119.942 319.074 120.292 318.96C120.643 318.842 120.927 318.657 121.145 318.406C121.362 318.151 121.504 317.814 121.571 317.398C121.637 316.981 121.604 316.643 121.471 316.382C121.339 316.117 121.118 315.923 120.811 315.8C120.503 315.672 120.122 315.608 119.667 315.608H118.275L116.372 327H112.423ZM122.054 320.324L124.582 327H120.292L117.849 320.324H122.054ZM125.978 327L128.392 312.455H134.671C135.75 312.455 136.662 312.651 137.405 313.044C138.149 313.437 138.684 314.003 139.01 314.741C139.337 315.48 139.415 316.366 139.245 317.398C139.074 318.439 138.698 319.318 138.115 320.033C137.538 320.743 136.801 321.283 135.907 321.652C135.016 322.017 134.017 322.199 132.909 322.199H129.159L129.671 319.131H132.625C133.089 319.131 133.497 319.074 133.847 318.96C134.197 318.842 134.481 318.657 134.699 318.406C134.917 318.151 135.059 317.814 135.125 317.398C135.192 316.981 135.158 316.643 135.026 316.382C134.893 316.117 134.673 315.923 134.365 315.8C134.058 315.672 133.676 315.608 133.222 315.608H131.83L129.926 327H125.978ZM135.608 320.324L138.137 327H133.847L131.404 320.324H135.608ZM145.896 312.455L143.481 327H139.532L141.947 312.455H145.896ZM146.83 315.636L147.37 312.455H160.012L159.472 315.636H155.097L153.222 327H149.33L151.205 315.636H146.83ZM173.655 319.983C173.39 321.564 172.864 322.89 172.078 323.96C171.292 325.03 170.338 325.838 169.216 326.382C168.094 326.927 166.894 327.199 165.615 327.199C164.252 327.199 163.068 326.903 162.064 326.311C161.06 325.719 160.329 324.853 159.87 323.712C159.41 322.571 159.318 321.176 159.593 319.528C159.848 317.947 160.369 316.616 161.155 315.537C161.941 314.457 162.9 313.641 164.032 313.087C165.163 312.533 166.373 312.256 167.661 312.256C169.015 312.256 170.192 312.554 171.191 313.151C172.194 313.747 172.924 314.621 173.378 315.771C173.837 316.922 173.93 318.326 173.655 319.983ZM169.678 319.528C169.81 318.695 169.82 317.994 169.706 317.426C169.593 316.853 169.354 316.422 168.989 316.134C168.624 315.84 168.134 315.693 167.519 315.693C166.818 315.693 166.198 315.864 165.658 316.205C165.118 316.545 164.671 317.036 164.316 317.675C163.961 318.314 163.712 319.083 163.57 319.983C163.418 320.826 163.404 321.527 163.527 322.085C163.655 322.644 163.906 323.063 164.28 323.342C164.659 323.622 165.151 323.761 165.757 323.761C166.449 323.761 167.06 323.596 167.59 323.264C168.125 322.933 168.568 322.452 168.918 321.822C169.273 321.193 169.526 320.428 169.678 319.528ZM187.79 317C187.833 316.531 187.719 316.164 187.45 315.899C187.18 315.629 186.725 315.494 186.086 315.494C185.679 315.494 185.338 315.542 185.063 315.636C184.793 315.731 184.583 315.861 184.431 316.027C184.284 316.193 184.192 316.384 184.154 316.602C184.112 316.773 184.114 316.929 184.161 317.071C184.213 317.208 184.31 317.334 184.452 317.447C184.599 317.561 184.791 317.663 185.028 317.753C185.269 317.843 185.556 317.923 185.887 317.994L187.023 318.25C187.8 318.42 188.451 318.645 188.977 318.925C189.507 319.199 189.924 319.526 190.227 319.905C190.53 320.284 190.728 320.707 190.823 321.176C190.923 321.645 190.925 322.156 190.83 322.71C190.669 323.667 190.298 324.476 189.715 325.139C189.133 325.802 188.373 326.306 187.435 326.652C186.498 326.998 185.414 327.17 184.183 327.17C182.923 327.17 181.853 326.983 180.972 326.609C180.096 326.231 179.462 325.653 179.069 324.876C178.681 324.095 178.586 323.098 178.785 321.886H182.535C182.478 322.331 182.525 322.705 182.677 323.009C182.828 323.312 183.072 323.541 183.408 323.697C183.745 323.854 184.164 323.932 184.665 323.932C185.092 323.932 185.456 323.88 185.759 323.776C186.062 323.671 186.301 323.527 186.477 323.342C186.652 323.158 186.758 322.947 186.796 322.71C186.834 322.492 186.796 322.298 186.683 322.128C186.569 321.957 186.363 321.804 186.065 321.666C185.766 321.529 185.357 321.403 184.836 321.29L183.444 320.977C182.208 320.693 181.275 320.224 180.646 319.571C180.016 318.918 179.793 318.023 179.978 316.886C180.129 315.958 180.511 315.149 181.121 314.457C181.737 313.761 182.518 313.222 183.465 312.838C184.417 312.45 185.47 312.256 186.626 312.256C187.8 312.256 188.782 312.452 189.573 312.845C190.369 313.238 190.939 313.79 191.285 314.5C191.635 315.21 191.73 316.044 191.569 317H187.79ZM206.878 319.983C206.613 321.564 206.087 322.89 205.301 323.96C204.515 325.03 203.561 325.838 202.439 326.382C201.317 326.927 200.116 327.199 198.838 327.199C197.474 327.199 196.291 326.903 195.287 326.311C194.283 325.719 193.552 324.853 193.092 323.712C192.633 322.571 192.541 321.176 192.815 319.528C193.071 317.947 193.592 316.616 194.378 315.537C195.164 314.457 196.123 313.641 197.254 313.087C198.386 312.533 199.596 312.256 200.884 312.256C202.238 312.256 203.414 312.554 204.413 313.151C205.417 313.747 206.146 314.621 206.601 315.771C207.06 316.922 207.152 318.326 206.878 319.983ZM202.901 319.528C203.033 318.695 203.043 317.994 202.929 317.426C202.815 316.853 202.576 316.422 202.212 316.134C201.847 315.84 201.357 315.693 200.741 315.693C200.041 315.693 199.42 315.864 198.881 316.205C198.341 316.545 197.893 317.036 197.538 317.675C197.183 318.314 196.935 319.083 196.793 319.983C196.641 320.826 196.627 321.527 196.75 322.085C196.878 322.644 197.129 323.063 197.503 323.342C197.882 323.622 198.374 323.761 198.98 323.761C199.671 323.761 200.282 323.596 200.812 323.264C201.348 322.933 201.79 322.452 202.141 321.822C202.496 321.193 202.749 320.428 202.901 319.528ZM222.54 312.455L220.125 327H216.83L212.853 319.358H212.767L211.489 327H207.54L209.955 312.455H213.307L217.228 320.068H217.341L218.591 312.455H222.54ZM81.3514 341.909H77.4025C77.4309 341.573 77.412 341.27 77.3457 341C77.2794 340.73 77.1658 340.498 77.0048 340.304C76.8438 340.105 76.6331 339.954 76.3727 339.849C76.1123 339.745 75.8021 339.693 75.4423 339.693C74.751 339.693 74.1331 339.866 73.5886 340.212C73.0441 340.553 72.5919 341.043 72.2321 341.682C71.8722 342.316 71.6165 343.074 71.465 343.955C71.3324 344.807 71.3277 345.515 71.4508 346.078C71.5787 346.642 71.8272 347.063 72.1966 347.342C72.5706 347.622 73.0559 347.761 73.6525 347.761C74.0502 347.761 74.4148 347.714 74.7463 347.619C75.0824 347.525 75.3807 347.39 75.6412 347.214C75.9063 347.035 76.1312 346.821 76.3159 346.575C76.5053 346.324 76.6497 346.047 76.7491 345.744H80.7264C80.5749 346.36 80.305 346.99 79.9167 347.634C79.5285 348.273 79.0266 348.862 78.411 349.402C77.7955 349.937 77.0711 350.37 76.2377 350.702C75.4044 351.033 74.4669 351.199 73.4252 351.199C72.0616 351.199 70.885 350.901 69.8954 350.304C68.9106 349.707 68.1956 348.836 67.7505 347.69C67.3102 346.545 67.2226 345.148 67.4877 343.5C67.7529 341.909 68.2761 340.576 69.0574 339.501C69.8386 338.427 70.7879 337.617 71.9054 337.072C73.0228 336.528 74.2112 336.256 75.4707 336.256C76.4224 336.256 77.2747 336.381 78.0275 336.632C78.7851 336.883 79.4219 337.25 79.938 337.733C80.4589 338.211 80.8424 338.801 81.0886 339.501C81.3348 340.202 81.4224 341.005 81.3514 341.909ZM96.9071 343.983C96.642 345.564 96.1164 346.89 95.3304 347.96C94.5444 349.03 93.5904 349.838 92.4682 350.382C91.3461 350.927 90.1458 351.199 88.8674 351.199C87.5037 351.199 86.32 350.903 85.3162 350.311C84.3124 349.719 83.5809 348.853 83.1216 347.712C82.6623 346.571 82.57 345.176 82.8446 343.528C83.1003 341.947 83.6212 340.616 84.4071 339.537C85.1931 338.457 86.1519 337.641 87.2836 337.087C88.4152 336.533 89.6249 336.256 90.9128 336.256C92.267 336.256 93.4436 336.554 94.4426 337.151C95.4464 337.747 96.1756 338.621 96.6301 339.771C97.0894 340.922 97.1818 342.326 96.9071 343.983ZM92.9299 343.528C93.0624 342.695 93.0719 341.994 92.9583 341.426C92.8446 340.853 92.6055 340.422 92.2409 340.134C91.8764 339.84 91.3863 339.693 90.7708 339.693C90.07 339.693 89.4498 339.864 88.91 340.205C88.3702 340.545 87.9228 341.036 87.5676 341.675C87.2125 342.314 86.964 343.083 86.8219 343.983C86.6704 344.826 86.6562 345.527 86.7793 346.085C86.9071 346.644 87.1581 347.063 87.5321 347.342C87.9109 347.622 88.4034 347.761 89.0094 347.761C89.7007 347.761 90.3115 347.596 90.8418 347.264C91.3768 346.933 91.8195 346.452 92.1699 345.822C92.525 345.193 92.7784 344.428 92.9299 343.528ZM97.5694 351L99.9842 336.455H106.263C107.342 336.455 108.254 336.651 108.997 337.044C109.74 337.437 110.275 338.003 110.602 338.741C110.929 339.48 111.007 340.366 110.836 341.398C110.666 342.439 110.29 343.318 109.707 344.033C109.13 344.743 108.393 345.283 107.498 345.652C106.608 346.017 105.609 346.199 104.501 346.199H100.751L101.263 343.131H104.217C104.681 343.131 105.088 343.074 105.439 342.96C105.789 342.842 106.073 342.657 106.291 342.406C106.509 342.151 106.651 341.814 106.717 341.398C106.783 340.981 106.75 340.643 106.618 340.382C106.485 340.117 106.265 339.923 105.957 339.8C105.649 339.672 105.268 339.608 104.814 339.608H103.422L101.518 351H97.5694ZM107.2 344.324L109.729 351H105.439L102.996 344.324H107.2ZM111.124 351L113.539 336.455H119.817C120.897 336.455 121.808 336.651 122.552 337.044C123.295 337.437 123.83 338.003 124.157 338.741C124.483 339.48 124.562 340.366 124.391 341.398C124.221 342.439 123.844 343.318 123.262 344.033C122.684 344.743 121.948 345.283 121.053 345.652C120.163 346.017 119.164 346.199 118.056 346.199H114.306L114.817 343.131H117.772C118.236 343.131 118.643 343.074 118.993 342.96C119.344 342.842 119.628 342.657 119.846 342.406C120.064 342.151 120.206 341.814 120.272 341.398C120.338 340.981 120.305 340.643 120.172 340.382C120.04 340.117 119.82 339.923 119.512 339.8C119.204 339.672 118.823 339.608 118.368 339.608H116.976L115.073 351H111.124ZM120.755 344.324L123.283 351H118.993L116.55 344.324H120.755ZM124.679 351L127.094 336.455H137.577L137.037 339.636H130.503L130.105 342.136H136.099L135.559 345.318H129.565L129.167 347.818H135.673L135.133 351H124.679ZM152.191 341.909H148.242C148.271 341.573 148.252 341.27 148.186 341C148.119 340.73 148.006 340.498 147.845 340.304C147.684 340.105 147.473 339.954 147.213 339.849C146.952 339.745 146.642 339.693 146.282 339.693C145.591 339.693 144.973 339.866 144.428 340.212C143.884 340.553 143.432 341.043 143.072 341.682C142.712 342.316 142.456 343.074 142.305 343.955C142.172 344.807 142.168 345.515 142.291 346.078C142.419 346.642 142.667 347.063 143.036 347.342C143.41 347.622 143.896 347.761 144.492 347.761C144.89 347.761 145.255 347.714 145.586 347.619C145.922 347.525 146.221 347.39 146.481 347.214C146.746 347.035 146.971 346.821 147.156 346.575C147.345 346.324 147.49 346.047 147.589 345.744H151.566C151.415 346.36 151.145 346.99 150.757 347.634C150.368 348.273 149.866 348.862 149.251 349.402C148.635 349.937 147.911 350.37 147.078 350.702C146.244 351.033 145.307 351.199 144.265 351.199C142.901 351.199 141.725 350.901 140.735 350.304C139.75 349.707 139.035 348.836 138.59 347.69C138.15 346.545 138.062 345.148 138.328 343.5C138.593 341.909 139.116 340.576 139.897 339.501C140.678 338.427 141.628 337.617 142.745 337.072C143.863 336.528 145.051 336.256 146.311 336.256C147.262 336.256 148.115 336.381 148.867 336.632C149.625 336.883 150.262 337.25 150.778 337.733C151.299 338.211 151.682 338.801 151.928 339.501C152.175 340.202 152.262 341.005 152.191 341.909ZM153.969 339.636L154.508 336.455H167.15L166.611 339.636H162.236L160.361 351H156.469L158.344 339.636H153.969ZM180.794 343.983C180.529 345.564 180.003 346.89 179.217 347.96C178.431 349.03 177.477 349.838 176.355 350.382C175.233 350.927 174.032 351.199 172.754 351.199C171.39 351.199 170.207 350.903 169.203 350.311C168.199 349.719 167.468 348.853 167.008 347.712C166.549 346.571 166.457 345.176 166.731 343.528C166.987 341.947 167.508 340.616 168.294 339.537C169.08 338.457 170.039 337.641 171.17 337.087C172.302 336.533 173.512 336.256 174.8 336.256C176.154 336.256 177.33 336.554 178.329 337.151C179.333 337.747 180.062 338.621 180.517 339.771C180.976 340.922 181.068 342.326 180.794 343.983ZM176.817 343.528C176.949 342.695 176.959 341.994 176.845 341.426C176.731 340.853 176.492 340.422 176.128 340.134C175.763 339.84 175.273 339.693 174.657 339.693C173.957 339.693 173.336 339.864 172.797 340.205C172.257 340.545 171.809 341.036 171.454 341.675C171.099 342.314 170.851 343.083 170.709 343.983C170.557 344.826 170.543 345.527 170.666 346.085C170.794 346.644 171.045 347.063 171.419 347.342C171.798 347.622 172.29 347.761 172.896 347.761C173.587 347.761 174.198 347.596 174.729 347.264C175.264 346.933 175.706 346.452 176.057 345.822C176.412 345.193 176.665 344.428 176.817 343.528ZM190.945 341C190.987 340.531 190.874 340.164 190.604 339.899C190.334 339.629 189.879 339.494 189.24 339.494C188.833 339.494 188.492 339.542 188.218 339.636C187.948 339.731 187.737 339.861 187.585 340.027C187.439 340.193 187.346 340.384 187.308 340.602C187.266 340.773 187.268 340.929 187.316 341.071C187.368 341.208 187.465 341.334 187.607 341.447C187.753 341.561 187.945 341.663 188.182 341.753C188.423 341.843 188.71 341.923 189.041 341.994L190.178 342.25C190.954 342.42 191.605 342.645 192.131 342.925C192.661 343.199 193.078 343.526 193.381 343.905C193.684 344.284 193.883 344.707 193.977 345.176C194.077 345.645 194.079 346.156 193.985 346.71C193.824 347.667 193.452 348.476 192.869 349.139C192.287 349.802 191.527 350.306 190.59 350.652C189.652 350.998 188.568 351.17 187.337 351.17C186.077 351.17 185.007 350.983 184.127 350.609C183.251 350.231 182.616 349.653 182.223 348.876C181.835 348.095 181.74 347.098 181.939 345.886H185.689C185.632 346.331 185.68 346.705 185.831 347.009C185.983 347.312 186.227 347.541 186.563 347.697C186.899 347.854 187.318 347.932 187.82 347.932C188.246 347.932 188.61 347.88 188.914 347.776C189.217 347.671 189.456 347.527 189.631 347.342C189.806 347.158 189.913 346.947 189.95 346.71C189.988 346.492 189.95 346.298 189.837 346.128C189.723 345.957 189.517 345.804 189.219 345.666C188.921 345.529 188.511 345.403 187.99 345.29L186.598 344.977C185.362 344.693 184.43 344.224 183.8 343.571C183.17 342.918 182.948 342.023 183.132 340.886C183.284 339.958 183.665 339.149 184.276 338.457C184.891 337.761 185.673 337.222 186.619 336.838C187.571 336.45 188.625 336.256 189.78 336.256C190.954 336.256 191.937 336.452 192.727 336.845C193.523 337.238 194.093 337.79 194.439 338.5C194.789 339.21 194.884 340.044 194.723 341H190.945Z" fill="white"/>
<path d="M182 119L108.438 193L75 159.364" stroke="white" stroke-width="17" stroke-linecap="round" stroke-linejoin="round"/>
</svg>
