<svg width="256" height="389" viewBox="0 0 256 389" fill="none" xmlns="http://www.w3.org/2000/svg">
<rect y="40" width="256" height="349" rx="50" fill="#FF0000"/>
<circle cx="128" cy="40" r="37" fill="white" stroke="#FF0000" stroke-width="6"/>
<path d="M117.145 55V49.9432L127.756 40.6534C128.551 39.9337 129.228 39.2756 129.787 38.679C130.346 38.0729 130.772 37.4669 131.065 36.8608C131.359 36.2453 131.506 35.5777 131.506 34.858C131.506 34.053 131.33 33.3665 130.98 32.7983C130.63 32.2206 130.147 31.7756 129.531 31.4631C128.916 31.1506 128.21 30.9943 127.415 30.9943C126.61 30.9943 125.904 31.16 125.298 31.4915C124.692 31.8134 124.219 32.2822 123.878 32.8977C123.546 33.5133 123.381 34.2614 123.381 35.142H116.719C116.719 33.1629 117.164 31.4536 118.054 30.0142C118.944 28.5748 120.194 27.4669 121.804 26.6903C123.423 25.9044 125.303 25.5114 127.443 25.5114C129.65 25.5114 131.567 25.8807 133.196 26.6193C134.825 27.358 136.084 28.3902 136.974 29.7159C137.874 31.0322 138.324 32.5616 138.324 34.304C138.324 35.4119 138.101 36.5104 137.656 37.5994C137.211 38.6884 136.411 39.8911 135.256 41.2074C134.11 42.5237 132.481 44.1004 130.369 45.9375L126.889 49.1477V49.3324H138.679V55H117.145Z" fill="#FF0000"/>
<path d="M58.169 292H51.3509L62.8963 268.727H71.5327L75.3509 292H68.5327L66.2599 275.136H66.0781L58.169 292ZM58.4418 282.818H71.2599L70.4418 287.545H57.6236L58.4418 282.818ZM94.2031 276.409C94.1728 276.008 94.0895 275.655 93.9531 275.352C93.8168 275.042 93.6236 274.78 93.3736 274.568C93.1236 274.348 92.813 274.186 92.4418 274.08C92.0781 273.966 91.6501 273.909 91.1577 273.909C90.0971 273.909 89.1312 274.163 88.2599 274.67C87.3887 275.178 86.6577 275.909 86.0668 276.864C85.4834 277.818 85.0819 278.97 84.8622 280.318C84.6349 281.682 84.616 282.848 84.8054 283.818C84.9948 284.788 85.4039 285.53 86.0327 286.045C86.669 286.561 87.5289 286.818 88.6122 286.818C89.5819 286.818 90.419 286.678 91.1236 286.398C91.8281 286.117 92.3925 285.72 92.8168 285.205C93.241 284.689 93.5062 284.083 93.6122 283.386L94.7031 283.5H89.3849L90.1122 279H100.43L99.9077 282.227C99.5592 284.348 98.8092 286.163 97.6577 287.67C96.5137 289.17 95.0895 290.322 93.3849 291.125C91.6804 291.92 89.8092 292.318 87.7713 292.318C85.5137 292.318 83.6084 291.837 82.0554 290.875C80.5024 289.913 79.3925 288.542 78.7259 286.761C78.0668 284.981 77.938 282.864 78.3395 280.409C78.6577 278.485 79.2334 276.78 80.0668 275.295C80.9077 273.811 81.9342 272.557 83.1463 271.534C84.3584 270.504 85.6955 269.727 87.1577 269.205C88.6198 268.674 90.1349 268.409 91.7031 268.409C93.0743 268.409 94.3205 268.606 95.4418 269C96.563 269.386 97.5213 269.939 98.3168 270.659C99.1122 271.371 99.7069 272.216 100.101 273.193C100.502 274.17 100.665 275.242 100.589 276.409H94.2031ZM101.217 292L105.081 268.727H115.126C116.854 268.727 118.312 269.042 119.501 269.67C120.691 270.299 121.547 271.205 122.07 272.386C122.592 273.568 122.717 274.985 122.445 276.636C122.172 278.303 121.57 279.708 120.638 280.852C119.714 281.989 118.536 282.852 117.104 283.443C115.679 284.027 114.081 284.318 112.308 284.318H106.308L107.126 279.409H111.854C112.596 279.409 113.248 279.318 113.808 279.136C114.369 278.947 114.823 278.652 115.172 278.25C115.52 277.841 115.748 277.303 115.854 276.636C115.96 275.97 115.907 275.428 115.695 275.011C115.482 274.587 115.13 274.277 114.638 274.08C114.145 273.875 113.536 273.773 112.808 273.773H110.581L107.536 292H101.217ZM116.626 281.318L120.672 292H113.808L109.899 281.318H116.626ZM122.905 292L126.768 268.727H143.541L142.678 273.818H132.223L131.587 277.818H141.178L140.314 282.909H130.723L130.087 286.909H140.496L139.632 292H122.905ZM160.516 276.409C160.485 276.008 160.402 275.655 160.266 275.352C160.129 275.042 159.936 274.78 159.686 274.568C159.436 274.348 159.125 274.186 158.754 274.08C158.391 273.966 157.963 273.909 157.47 273.909C156.41 273.909 155.444 274.163 154.572 274.67C153.701 275.178 152.97 275.909 152.379 276.864C151.796 277.818 151.394 278.97 151.175 280.318C150.947 281.682 150.929 282.848 151.118 283.818C151.307 284.788 151.716 285.53 152.345 286.045C152.982 286.561 153.841 286.818 154.925 286.818C155.894 286.818 156.732 286.678 157.436 286.398C158.141 286.117 158.705 285.72 159.129 285.205C159.554 284.689 159.819 284.083 159.925 283.386L161.016 283.5H155.697L156.425 279H166.743L166.22 282.227C165.872 284.348 165.122 286.163 163.97 287.67C162.826 289.17 161.402 290.322 159.697 291.125C157.993 291.92 156.122 292.318 154.084 292.318C151.826 292.318 149.921 291.837 148.368 290.875C146.815 289.913 145.705 288.542 145.038 286.761C144.379 284.981 144.25 282.864 144.652 280.409C144.97 278.485 145.546 276.78 146.379 275.295C147.22 273.811 148.247 272.557 149.459 271.534C150.671 270.504 152.008 269.727 153.47 269.205C154.932 268.674 156.447 268.409 158.016 268.409C159.387 268.409 160.633 268.606 161.754 269C162.875 269.386 163.834 269.939 164.629 270.659C165.425 271.371 166.019 272.216 166.413 273.193C166.815 274.17 166.978 275.242 166.902 276.409H160.516ZM172.857 292H166.038L177.584 268.727H186.22L190.038 292H183.22L180.947 275.136H180.766L172.857 292ZM173.129 282.818H185.947L185.129 287.545H172.311L173.129 282.818ZM192.28 292L196.143 268.727H206.189C207.916 268.727 209.375 269.042 210.564 269.67C211.753 270.299 212.609 271.205 213.132 272.386C213.655 273.568 213.78 274.985 213.507 276.636C213.234 278.303 212.632 279.708 211.7 280.852C210.776 281.989 209.598 282.852 208.166 283.443C206.742 284.027 205.143 284.318 203.371 284.318H197.371L198.189 279.409H202.916C203.659 279.409 204.31 279.318 204.871 279.136C205.431 278.947 205.886 278.652 206.234 278.25C206.583 277.841 206.81 277.303 206.916 276.636C207.022 275.97 206.969 275.428 206.757 275.011C206.545 274.587 206.193 274.277 205.7 274.08C205.208 273.875 204.598 273.773 203.871 273.773H201.643L198.598 292H192.28ZM207.689 281.318L211.734 292H204.871L200.962 281.318H207.689ZM26.3736 331L30.2372 307.727H40.2827C42.0099 307.727 43.4645 308.068 44.6463 308.75C45.8281 309.432 46.6766 310.39 47.1918 311.625C47.7069 312.86 47.8281 314.303 47.5554 315.955C47.2827 317.636 46.6766 319.087 45.7372 320.307C44.8054 321.519 43.616 322.455 42.169 323.114C40.7296 323.765 39.116 324.091 37.3281 324.091H31.3281L32.1463 319.182H36.8736C37.6312 319.182 38.2978 319.053 38.8736 318.795C39.4493 318.53 39.9152 318.159 40.2713 317.682C40.6274 317.197 40.8584 316.621 40.9645 315.955C41.0705 315.288 41.0213 314.72 40.8168 314.25C40.6198 313.773 40.2789 313.409 39.794 313.159C39.3168 312.902 38.7069 312.773 37.9645 312.773H35.7372L32.6918 331H26.3736ZM47.3736 331L51.2372 307.727H61.2827C63.0099 307.727 64.4683 308.042 65.6577 308.67C66.8471 309.299 67.7031 310.205 68.2259 311.386C68.7486 312.568 68.8736 313.985 68.6009 315.636C68.3281 317.303 67.7259 318.708 66.794 319.852C65.8698 320.989 64.6918 321.852 63.2599 322.443C61.8357 323.027 60.2372 323.318 58.4645 323.318H52.4645L53.2827 318.409H58.0099C58.7524 318.409 59.4039 318.318 59.9645 318.136C60.5251 317.947 60.9796 317.652 61.3281 317.25C61.6766 316.841 61.9039 316.303 62.0099 315.636C62.116 314.97 62.063 314.428 61.8509 314.011C61.6387 313.587 61.2865 313.277 60.794 313.08C60.3016 312.875 59.6918 312.773 58.9645 312.773H56.7372L53.6918 331H47.3736ZM62.7827 320.318L66.8281 331H59.9645L56.0554 320.318H62.7827ZM93.4702 319.773C93.0459 322.303 92.205 324.424 90.9474 326.136C89.6899 327.848 88.1634 329.14 86.3679 330.011C84.5724 330.883 82.652 331.318 80.6065 331.318C78.4247 331.318 76.5308 330.845 74.9247 329.898C73.3187 328.951 72.1482 327.564 71.4134 325.739C70.6785 323.913 70.5308 321.682 70.9702 319.045C71.3793 316.515 72.2126 314.386 73.4702 312.659C74.7277 310.932 76.2618 309.625 78.0724 308.739C79.883 307.852 81.8187 307.409 83.8793 307.409C86.0459 307.409 87.9285 307.886 89.527 308.841C91.1331 309.795 92.2997 311.193 93.027 313.034C93.7618 314.875 93.9096 317.121 93.4702 319.773ZM87.1065 319.045C87.3187 317.712 87.3338 316.591 87.152 315.682C86.9702 314.765 86.5876 314.076 86.0043 313.614C85.4209 313.144 84.6368 312.909 83.652 312.909C82.5308 312.909 81.5384 313.182 80.6747 313.727C79.8111 314.273 79.0952 315.057 78.527 316.08C77.9588 317.102 77.5611 318.333 77.3338 319.773C77.0914 321.121 77.0687 322.242 77.2656 323.136C77.4702 324.03 77.8717 324.701 78.4702 325.148C79.0762 325.595 79.8641 325.818 80.8338 325.818C81.9399 325.818 82.9171 325.553 83.7656 325.023C84.6217 324.492 85.33 323.723 85.8906 322.716C86.4588 321.708 86.8641 320.485 87.1065 319.045ZM103.621 331H94.5298L98.3935 307.727H107.121C109.515 307.727 111.515 308.208 113.121 309.17C114.727 310.133 115.867 311.508 116.541 313.295C117.215 315.083 117.348 317.212 116.939 319.682C116.545 322.061 115.746 324.095 114.541 325.784C113.344 327.473 111.814 328.765 109.95 329.659C108.094 330.553 105.984 331 103.621 331ZM101.734 325.636H104.03C105.181 325.636 106.208 325.436 107.109 325.034C108.018 324.625 108.776 323.943 109.382 322.989C109.996 322.027 110.439 320.712 110.712 319.045C110.969 317.47 110.962 316.254 110.689 315.398C110.416 314.534 109.897 313.936 109.132 313.602C108.367 313.261 107.378 313.091 106.166 313.091H103.825L101.734 325.636ZM135.635 307.727H141.953L139.476 322.636C139.188 324.409 138.514 325.943 137.453 327.239C136.4 328.527 135.059 329.523 133.43 330.227C131.802 330.924 129.991 331.273 127.999 331.273C125.991 331.273 124.294 330.924 122.908 330.227C121.521 329.523 120.514 328.527 119.885 327.239C119.264 325.943 119.097 324.409 119.385 322.636L121.862 307.727H128.18L125.794 322.091C125.68 322.811 125.737 323.451 125.964 324.011C126.192 324.572 126.559 325.015 127.067 325.341C127.574 325.659 128.188 325.818 128.908 325.818C129.635 325.818 130.305 325.659 130.919 325.341C131.54 325.015 132.055 324.572 132.464 324.011C132.874 323.451 133.135 322.811 133.249 322.091L135.635 307.727ZM165.206 316.455H158.888C158.933 315.917 158.903 315.432 158.797 315C158.691 314.568 158.509 314.197 158.251 313.886C157.994 313.568 157.657 313.326 157.24 313.159C156.823 312.992 156.327 312.909 155.751 312.909C154.645 312.909 153.657 313.186 152.786 313.739C151.914 314.284 151.191 315.068 150.615 316.091C150.039 317.106 149.63 318.318 149.388 319.727C149.176 321.091 149.168 322.223 149.365 323.125C149.57 324.027 149.967 324.701 150.558 325.148C151.157 325.595 151.933 325.818 152.888 325.818C153.524 325.818 154.107 325.742 154.638 325.591C155.176 325.439 155.653 325.223 156.07 324.943C156.494 324.655 156.854 324.314 157.149 323.92C157.452 323.519 157.683 323.076 157.842 322.591H164.206C163.964 323.576 163.532 324.583 162.911 325.614C162.289 326.636 161.486 327.58 160.501 328.443C159.517 329.299 158.357 329.992 157.024 330.523C155.691 331.053 154.191 331.318 152.524 331.318C150.342 331.318 148.46 330.841 146.876 329.886C145.301 328.932 144.157 327.538 143.445 325.705C142.74 323.871 142.6 321.636 143.024 319C143.448 316.455 144.286 314.322 145.536 312.602C146.786 310.883 148.304 309.587 150.092 308.716C151.88 307.845 153.782 307.409 155.797 307.409C157.32 307.409 158.683 307.61 159.888 308.011C161.1 308.413 162.119 309 162.945 309.773C163.778 310.538 164.392 311.481 164.786 312.602C165.179 313.723 165.32 315.008 165.206 316.455ZM168.05 312.818L168.913 307.727H189.141L188.277 312.818H181.277L178.277 331H172.05L175.05 312.818H168.05ZM210.97 319.773C210.546 322.303 209.705 324.424 208.447 326.136C207.19 327.848 205.663 329.14 203.868 330.011C202.072 330.883 200.152 331.318 198.107 331.318C195.925 331.318 194.031 330.845 192.425 329.898C190.819 328.951 189.648 327.564 188.913 325.739C188.179 323.913 188.031 321.682 188.47 319.045C188.879 316.515 189.713 314.386 190.97 312.659C192.228 310.932 193.762 309.625 195.572 308.739C197.383 307.852 199.319 307.409 201.379 307.409C203.546 307.409 205.429 307.886 207.027 308.841C208.633 309.795 209.8 311.193 210.527 313.034C211.262 314.875 211.41 317.121 210.97 319.773ZM204.607 319.045C204.819 317.712 204.834 316.591 204.652 315.682C204.47 314.765 204.088 314.076 203.504 313.614C202.921 313.144 202.137 312.909 201.152 312.909C200.031 312.909 199.038 313.182 198.175 313.727C197.311 314.273 196.595 315.057 196.027 316.08C195.459 317.102 195.061 318.333 194.834 319.773C194.591 321.121 194.569 322.242 194.766 323.136C194.97 324.03 195.372 324.701 195.97 325.148C196.576 325.595 197.364 325.818 198.334 325.818C199.44 325.818 200.417 325.553 201.266 325.023C202.122 324.492 202.83 323.723 203.391 322.716C203.959 321.708 204.364 320.485 204.607 319.045ZM227.212 315C227.28 314.25 227.098 313.663 226.666 313.239C226.234 312.807 225.507 312.591 224.484 312.591C223.833 312.591 223.287 312.667 222.848 312.818C222.416 312.97 222.079 313.178 221.837 313.443C221.602 313.708 221.454 314.015 221.393 314.364C221.325 314.636 221.329 314.886 221.405 315.114C221.488 315.333 221.643 315.534 221.871 315.716C222.106 315.898 222.412 316.061 222.791 316.205C223.178 316.348 223.636 316.477 224.166 316.591L225.984 317C227.227 317.273 228.268 317.633 229.109 318.08C229.958 318.519 230.625 319.042 231.109 319.648C231.594 320.254 231.912 320.932 232.064 321.682C232.223 322.432 232.227 323.25 232.075 324.136C231.818 325.667 231.223 326.962 230.291 328.023C229.359 329.083 228.143 329.89 226.643 330.443C225.143 330.996 223.409 331.273 221.439 331.273C219.424 331.273 217.712 330.973 216.303 330.375C214.901 329.769 213.886 328.845 213.257 327.602C212.636 326.352 212.484 324.758 212.803 322.818H218.803C218.712 323.53 218.787 324.129 219.03 324.614C219.272 325.098 219.662 325.466 220.2 325.716C220.738 325.966 221.409 326.091 222.212 326.091C222.893 326.091 223.477 326.008 223.962 325.841C224.446 325.674 224.829 325.443 225.109 325.148C225.39 324.852 225.56 324.515 225.621 324.136C225.681 323.788 225.621 323.477 225.439 323.205C225.257 322.932 224.928 322.686 224.45 322.466C223.973 322.246 223.318 322.045 222.484 321.864L220.257 321.364C218.28 320.909 216.787 320.159 215.78 319.114C214.772 318.068 214.416 316.636 214.712 314.818C214.954 313.333 215.564 312.038 216.541 310.932C217.526 309.818 218.776 308.955 220.291 308.341C221.814 307.72 223.5 307.409 225.348 307.409C227.227 307.409 228.799 307.723 230.064 308.352C231.337 308.981 232.25 309.864 232.803 311C233.363 312.136 233.515 313.47 233.257 315H227.212Z" fill="white"/>
<path d="M164.5 206C167.538 206 170 203.761 170 201C170 198.239 167.538 196 164.5 196C161.462 196 159 198.239 159 201C159 203.761 161.462 206 164.5 206Z" stroke="white" stroke-width="17" stroke-linecap="round" stroke-linejoin="round"/>
<path d="M108 206C110.761 206 113 203.761 113 201C113 198.239 110.761 196 108 196C105.239 196 103 198.239 103 201C103 203.761 105.239 206 108 206Z" stroke="white" stroke-width="17" stroke-linecap="round" stroke-linejoin="round"/>
<path d="M67 98H87.5455L101.311 166.734C101.781 169.097 103.067 171.22 104.945 172.731C106.823 174.242 109.173 175.044 111.584 174.998H161.509C163.92 175.044 166.27 174.242 168.148 172.731C170.026 171.22 171.312 169.097 171.782 166.734L180 123.666H92.6818" stroke="white" stroke-width="17" stroke-linecap="round" stroke-linejoin="round"/>
</svg>
