<svg width="259" height="389" viewBox="0 0 259 389" fill="none" xmlns="http://www.w3.org/2000/svg">
<rect x="2.33002" y="40" width="256" height="349" rx="50" fill="#FF0000"/>
<circle cx="130.33" cy="40" r="37" fill="white" stroke="#FF0000" stroke-width="6"/>
<path d="M129.281 55.3977C127.16 55.3977 125.276 55.0142 123.628 54.2472C121.98 53.4801 120.678 52.4242 119.722 51.0795C118.775 49.7348 118.282 48.1913 118.244 46.4489H125.062C125.119 47.5189 125.555 48.3807 126.369 49.0341C127.184 49.678 128.154 50 129.281 50C130.162 50 130.943 49.8059 131.625 49.4176C132.307 49.0294 132.842 48.4848 133.23 47.7841C133.618 47.0739 133.808 46.2595 133.798 45.3409C133.808 44.4034 133.614 43.5843 133.216 42.8835C132.828 42.1828 132.288 41.6383 131.597 41.25C130.915 40.8523 130.129 40.6534 129.239 40.6534C128.396 40.6439 127.596 40.8286 126.838 41.2074C126.09 41.5862 125.522 42.1023 125.134 42.7557L118.926 41.5909L120.19 25.9091H138.855V31.5767H125.972L125.304 38.4375H125.474C125.957 37.6326 126.734 36.9697 127.804 36.4489C128.884 35.9186 130.11 35.6534 131.483 35.6534C133.225 35.6534 134.778 36.0606 136.142 36.875C137.515 37.6799 138.595 38.7973 139.381 40.2273C140.176 41.6572 140.574 43.2955 140.574 45.142C140.574 47.1402 140.1 48.911 139.153 50.4545C138.216 51.9981 136.9 53.2102 135.205 54.0909C133.519 54.9621 131.545 55.3977 129.281 55.3977Z" fill="#FF0000"/>
<path d="M39.9613 287H31.4386L45.8704 257.909H56.6658L61.4386 287H52.9158L50.0749 265.92H49.8477L39.9613 287ZM40.3022 275.523H56.3249L55.3022 281.432H39.2795L40.3022 275.523ZM85.0039 267.511C84.966 267.009 84.8619 266.569 84.6914 266.19C84.521 265.802 84.2795 265.475 83.967 265.21C83.6545 264.936 83.2662 264.732 82.8022 264.599C82.3477 264.457 81.8126 264.386 81.1971 264.386C79.8713 264.386 78.6639 264.704 77.5749 265.338C76.4859 265.973 75.5721 266.886 74.8335 268.08C74.1043 269.273 73.6024 270.712 73.3278 272.398C73.0437 274.102 73.02 275.561 73.2567 276.773C73.4935 277.985 74.0049 278.913 74.7908 279.557C75.5863 280.201 76.6611 280.523 78.0153 280.523C79.2274 280.523 80.2738 280.348 81.1545 279.997C82.0352 279.647 82.7406 279.15 83.271 278.506C83.8013 277.862 84.1327 277.104 84.2653 276.233L85.6289 276.375H78.9812L79.8903 270.75H92.788L92.1346 274.784C91.699 277.436 90.7615 279.704 89.3221 281.588C87.8922 283.463 86.1119 284.902 83.9812 285.906C81.8505 286.901 79.5115 287.398 76.9641 287.398C74.1422 287.398 71.7605 286.796 69.8192 285.594C67.878 284.391 66.4906 282.677 65.6573 280.452C64.8335 278.226 64.6725 275.58 65.1744 272.511C65.5721 270.106 66.2918 267.975 67.3335 266.119C68.3846 264.263 69.6677 262.696 71.1829 261.418C72.698 260.13 74.3694 259.159 76.1971 258.506C78.0247 257.843 79.9187 257.511 81.8789 257.511C83.5929 257.511 85.1507 257.758 86.5522 258.25C87.9537 258.733 89.1516 259.424 90.146 260.324C91.1403 261.214 91.8836 262.27 92.3761 263.491C92.878 264.713 93.0816 266.053 92.9869 267.511H85.0039ZM93.7717 287L98.6012 257.909H111.158C113.317 257.909 115.14 258.302 116.627 259.088C118.114 259.874 119.184 261.006 119.837 262.483C120.49 263.96 120.647 265.731 120.306 267.795C119.965 269.879 119.212 271.635 118.047 273.065C116.892 274.486 115.419 275.565 113.63 276.304C111.849 277.033 109.851 277.398 107.635 277.398H100.135L101.158 271.261H107.067C107.995 271.261 108.81 271.148 109.51 270.92C110.211 270.684 110.779 270.314 111.215 269.812C111.65 269.301 111.935 268.629 112.067 267.795C112.2 266.962 112.133 266.285 111.868 265.764C111.603 265.234 111.163 264.846 110.547 264.599C109.932 264.344 109.169 264.216 108.26 264.216H105.476L101.669 287H93.7717ZM113.033 273.648L118.09 287H109.51L104.624 273.648H113.033ZM120.881 287L125.711 257.909H146.676L145.597 264.273H132.529L131.733 269.273H143.722L142.642 275.636H130.654L129.858 280.636H142.87L141.79 287H120.881ZM167.895 267.511C167.857 267.009 167.752 266.569 167.582 266.19C167.412 265.802 167.17 265.475 166.858 265.21C166.545 264.936 166.157 264.732 165.693 264.599C165.238 264.457 164.703 264.386 164.088 264.386C162.762 264.386 161.555 264.704 160.466 265.338C159.377 265.973 158.463 266.886 157.724 268.08C156.995 269.273 156.493 270.712 156.218 272.398C155.934 274.102 155.911 275.561 156.147 276.773C156.384 277.985 156.895 278.913 157.681 279.557C158.477 280.201 159.552 280.523 160.906 280.523C162.118 280.523 163.164 280.348 164.045 279.997C164.926 279.647 165.631 279.15 166.162 278.506C166.692 277.862 167.023 277.104 167.156 276.233L168.52 276.375H161.872L162.781 270.75H175.679L175.025 274.784C174.59 277.436 173.652 279.704 172.213 281.588C170.783 283.463 169.002 284.902 166.872 285.906C164.741 286.901 162.402 287.398 159.855 287.398C157.033 287.398 154.651 286.796 152.71 285.594C150.769 284.391 149.381 282.677 148.548 280.452C147.724 278.226 147.563 275.58 148.065 272.511C148.463 270.106 149.182 267.975 150.224 266.119C151.275 264.263 152.558 262.696 154.074 261.418C155.589 260.13 157.26 259.159 159.088 258.506C160.915 257.843 162.809 257.511 164.77 257.511C166.484 257.511 168.041 257.758 169.443 258.25C170.844 258.733 172.042 259.424 173.037 260.324C174.031 261.214 174.774 262.27 175.267 263.491C175.769 264.713 175.972 266.053 175.877 267.511H167.895ZM183.321 287H174.798L189.23 257.909H200.025L204.798 287H196.275L193.434 265.92H193.207L183.321 287ZM183.662 275.523H199.684L198.662 281.432H182.639L183.662 275.523ZM207.6 287L212.429 257.909H224.986C227.145 257.909 228.968 258.302 230.455 259.088C231.942 259.874 233.012 261.006 233.665 262.483C234.319 263.96 234.475 265.731 234.134 267.795C233.793 269.879 233.04 271.635 231.875 273.065C230.72 274.486 229.248 275.565 227.458 276.304C225.677 277.033 223.679 277.398 221.463 277.398H213.963L214.986 271.261H220.895C221.823 271.261 222.638 271.148 223.338 270.92C224.039 270.684 224.607 270.314 225.043 269.812C225.479 269.301 225.763 268.629 225.895 267.795C226.028 266.962 225.962 266.285 225.696 265.764C225.431 265.234 224.991 264.846 224.375 264.599C223.76 264.344 222.998 264.216 222.088 264.216H219.304L215.498 287H207.6ZM226.861 273.648L231.918 287H223.338L218.452 273.648H226.861ZM65.0146 316L67.9123 298.545H72.6509L70.4009 312.182H77.4577L76.81 316H65.0146ZM96.3526 307.58C96.0344 309.477 95.4038 311.068 94.4606 312.352C93.5174 313.636 92.3725 314.605 91.0259 315.259C89.6793 315.912 88.239 316.239 86.7049 316.239C85.0685 316.239 83.6481 315.884 82.4435 315.173C81.239 314.463 80.3612 313.423 79.81 312.054C79.2589 310.685 79.1481 309.011 79.4776 307.034C79.7844 305.136 80.4094 303.54 81.3526 302.244C82.2958 300.949 83.4464 299.969 84.8043 299.304C86.1623 298.639 87.614 298.307 89.1594 298.307C90.7844 298.307 92.1964 298.665 93.3952 299.381C94.5998 300.097 95.4748 301.145 96.0202 302.526C96.5714 303.906 96.6822 305.591 96.3526 307.58ZM91.5799 307.034C91.739 306.034 91.7504 305.193 91.614 304.511C91.4776 303.824 91.1907 303.307 90.7532 302.96C90.3157 302.608 89.7276 302.432 88.989 302.432C88.1481 302.432 87.4038 302.636 86.756 303.045C86.1083 303.455 85.5714 304.043 85.1452 304.81C84.7191 305.577 84.4208 306.5 84.2504 307.58C84.0685 308.591 84.0515 309.432 84.1992 310.102C84.3526 310.773 84.6538 311.276 85.1026 311.611C85.5572 311.946 86.1481 312.114 86.8754 312.114C87.7049 312.114 88.4379 311.915 89.0742 311.517C89.7163 311.119 90.2475 310.543 90.668 309.787C91.0941 309.031 91.3981 308.114 91.5799 307.034ZM108.534 304C108.585 303.438 108.449 302.997 108.125 302.679C107.801 302.355 107.255 302.193 106.488 302.193C106 302.193 105.591 302.25 105.261 302.364C104.937 302.477 104.684 302.634 104.502 302.832C104.326 303.031 104.216 303.261 104.17 303.523C104.119 303.727 104.122 303.915 104.179 304.085C104.241 304.25 104.358 304.401 104.528 304.537C104.704 304.673 104.934 304.795 105.218 304.903C105.508 305.011 105.852 305.108 106.25 305.193L107.613 305.5C108.545 305.705 109.326 305.974 109.957 306.31C110.593 306.639 111.093 307.031 111.457 307.486C111.821 307.94 112.059 308.449 112.173 309.011C112.292 309.574 112.295 310.187 112.181 310.852C111.988 312 111.542 312.972 110.843 313.767C110.145 314.562 109.233 315.168 108.108 315.582C106.983 315.997 105.681 316.205 104.204 316.205C102.693 316.205 101.409 315.98 100.352 315.531C99.3008 315.077 98.5394 314.384 98.0678 313.452C97.6019 312.514 97.4883 311.318 97.7269 309.864H102.227C102.159 310.398 102.216 310.847 102.397 311.21C102.579 311.574 102.872 311.849 103.275 312.037C103.679 312.224 104.181 312.318 104.784 312.318C105.295 312.318 105.733 312.256 106.096 312.131C106.46 312.006 106.747 311.832 106.957 311.611C107.167 311.389 107.295 311.136 107.341 310.852C107.386 310.591 107.341 310.358 107.204 310.153C107.068 309.949 106.821 309.764 106.463 309.599C106.105 309.435 105.613 309.284 104.988 309.148L103.318 308.773C101.835 308.432 100.716 307.869 99.9599 307.085C99.2042 306.301 98.9371 305.227 99.1587 303.864C99.3406 302.75 99.7979 301.778 100.531 300.949C101.27 300.114 102.207 299.466 103.343 299.006C104.485 298.54 105.75 298.307 107.136 298.307C108.545 298.307 109.724 298.543 110.673 299.014C111.627 299.486 112.312 300.148 112.727 301C113.147 301.852 113.261 302.852 113.068 304H108.534ZM124.731 316H117.913L120.811 298.545H127.356C129.152 298.545 130.652 298.906 131.856 299.628C133.061 300.349 133.916 301.381 134.422 302.722C134.927 304.062 135.027 305.659 134.72 307.511C134.424 309.295 133.825 310.821 132.922 312.088C132.024 313.355 130.876 314.324 129.478 314.994C128.086 315.665 126.504 316 124.731 316ZM123.316 311.977H125.038C125.902 311.977 126.672 311.827 127.348 311.526C128.029 311.219 128.598 310.707 129.052 309.991C129.512 309.27 129.845 308.284 130.049 307.034C130.243 305.852 130.237 304.94 130.032 304.298C129.828 303.651 129.439 303.202 128.865 302.952C128.291 302.696 127.549 302.568 126.64 302.568H124.885L123.316 311.977ZM138.947 316H133.833L142.493 298.545H148.97L151.833 316H146.72L145.015 303.352H144.879L138.947 316ZM139.152 309.114H148.765L148.152 312.659H138.538L139.152 309.114ZM153.084 302.364L153.732 298.545H168.902L168.255 302.364H163.005L160.755 316H156.084L158.334 302.364H153.084ZM185.275 307.58C184.956 309.477 184.326 311.068 183.382 312.352C182.439 313.636 181.294 314.605 179.948 315.259C178.601 315.912 177.161 316.239 175.627 316.239C173.99 316.239 172.57 315.884 171.365 315.173C170.161 314.463 169.283 313.423 168.732 312.054C168.181 310.685 168.07 309.011 168.4 307.034C168.706 305.136 169.331 303.54 170.275 302.244C171.218 300.949 172.368 299.969 173.726 299.304C175.084 298.639 176.536 298.307 178.081 298.307C179.706 298.307 181.118 298.665 182.317 299.381C183.522 300.097 184.397 301.145 184.942 302.526C185.493 303.906 185.604 305.591 185.275 307.58ZM180.502 307.034C180.661 306.034 180.672 305.193 180.536 304.511C180.4 303.824 180.113 303.307 179.675 302.96C179.238 302.608 178.65 302.432 177.911 302.432C177.07 302.432 176.326 302.636 175.678 303.045C175.03 303.455 174.493 304.043 174.067 304.81C173.641 305.577 173.343 306.5 173.172 307.58C172.99 308.591 172.973 309.432 173.121 310.102C173.275 310.773 173.576 311.276 174.025 311.611C174.479 311.946 175.07 312.114 175.797 312.114C176.627 312.114 177.36 311.915 177.996 311.517C178.638 311.119 179.169 310.543 179.59 309.787C180.016 309.031 180.32 308.114 180.502 307.034ZM197.456 304C197.507 303.438 197.37 302.997 197.047 302.679C196.723 302.355 196.177 302.193 195.41 302.193C194.922 302.193 194.512 302.25 194.183 302.364C193.859 302.477 193.606 302.634 193.424 302.832C193.248 303.031 193.137 303.261 193.092 303.523C193.041 303.727 193.044 303.915 193.1 304.085C193.163 304.25 193.279 304.401 193.45 304.537C193.626 304.673 193.856 304.795 194.14 304.903C194.43 305.011 194.774 305.108 195.172 305.193L196.535 305.5C197.467 305.705 198.248 305.974 198.879 306.31C199.515 306.639 200.015 307.031 200.379 307.486C200.743 307.94 200.981 308.449 201.095 309.011C201.214 309.574 201.217 310.187 201.103 310.852C200.91 312 200.464 312.972 199.765 313.767C199.066 314.562 198.154 315.168 197.029 315.582C195.904 315.997 194.603 316.205 193.126 316.205C191.615 316.205 190.331 315.98 189.274 315.531C188.223 315.077 187.461 314.384 186.99 313.452C186.524 312.514 186.41 311.318 186.649 309.864H191.149C191.081 310.398 191.137 310.847 191.319 311.21C191.501 311.574 191.794 311.849 192.197 312.037C192.6 312.224 193.103 312.318 193.706 312.318C194.217 312.318 194.654 312.256 195.018 312.131C195.382 312.006 195.669 311.832 195.879 311.611C196.089 311.389 196.217 311.136 196.262 310.852C196.308 310.591 196.262 310.358 196.126 310.153C195.99 309.949 195.743 309.764 195.385 309.599C195.027 309.435 194.535 309.284 193.91 309.148L192.24 308.773C190.757 308.432 189.637 307.869 188.882 307.085C188.126 306.301 187.859 305.227 188.081 303.864C188.262 302.75 188.72 301.778 189.453 300.949C190.191 300.114 191.129 299.466 192.265 299.006C193.407 298.54 194.672 298.307 196.058 298.307C197.467 298.307 198.646 298.543 199.595 299.014C200.549 299.486 201.234 300.148 201.649 301C202.069 301.852 202.183 302.852 201.99 304H197.456ZM61.2837 333C61.3349 332.438 61.1985 331.997 60.8746 331.679C60.5508 331.355 60.0053 331.193 59.2383 331.193C58.7496 331.193 58.3406 331.25 58.011 331.364C57.6871 331.477 57.4343 331.634 57.2525 331.832C57.0763 332.031 56.9656 332.261 56.9201 332.523C56.869 332.727 56.8718 332.915 56.9286 333.085C56.9911 333.25 57.1076 333.401 57.2781 333.537C57.4542 333.673 57.6843 333.795 57.9684 333.903C58.2582 334.011 58.6019 334.108 58.9996 334.193L60.3633 334.5C61.2951 334.705 62.0763 334.974 62.707 335.31C63.3434 335.639 63.8434 336.031 64.207 336.486C64.5707 336.94 64.8093 337.449 64.9229 338.011C65.0423 338.574 65.0451 339.187 64.9315 339.852C64.7383 341 64.2923 341.972 63.5934 342.767C62.8945 343.562 61.9826 344.168 60.8576 344.582C59.7326 344.997 58.4315 345.205 56.9542 345.205C55.4428 345.205 54.1587 344.98 53.1019 344.531C52.0508 344.077 51.2894 343.384 50.8178 342.452C50.3519 341.514 50.2383 340.318 50.4769 338.864H54.9769C54.9087 339.398 54.9656 339.847 55.1474 340.21C55.3292 340.574 55.6218 340.849 56.0252 341.037C56.4286 341.224 56.9315 341.318 57.5337 341.318C58.0451 341.318 58.4826 341.256 58.8462 341.131C59.2099 341.006 59.4968 340.832 59.707 340.611C59.9173 340.389 60.0451 340.136 60.0906 339.852C60.136 339.591 60.0906 339.358 59.9542 339.153C59.8178 338.949 59.5707 338.764 59.2127 338.599C58.8548 338.435 58.3633 338.284 57.7383 338.148L56.0678 337.773C54.5849 337.432 53.4656 336.869 52.7099 336.085C51.9542 335.301 51.6871 334.227 51.9087 332.864C52.0906 331.75 52.5479 330.778 53.2809 329.949C54.0195 329.114 54.957 328.466 56.0934 328.006C57.2354 327.54 58.4996 327.307 59.886 327.307C61.2951 327.307 62.4741 327.543 63.4229 328.014C64.3775 328.486 65.0621 329.148 65.4769 330C65.8974 330.852 66.011 331.852 65.8178 333H61.2837ZM84.1886 336.58C83.8704 338.477 83.2397 340.068 82.2965 341.352C81.3533 342.636 80.2085 343.605 78.8619 344.259C77.5153 344.912 76.0749 345.239 74.5408 345.239C72.9045 345.239 71.484 344.884 70.2795 344.173C69.0749 343.463 68.1971 342.423 67.646 341.054C67.0948 339.685 66.984 338.011 67.3136 336.034C67.6204 334.136 68.2454 332.54 69.1886 331.244C70.1317 329.949 71.2823 328.969 72.6403 328.304C73.9982 327.639 75.4499 327.307 76.9954 327.307C78.6204 327.307 80.0323 327.665 81.2312 328.381C82.4357 329.097 83.3107 330.145 83.8562 331.526C84.4073 332.906 84.5181 334.591 84.1886 336.58ZM79.4158 336.034C79.5749 335.034 79.5863 334.193 79.4499 333.511C79.3136 332.824 79.0266 332.307 78.5891 331.96C78.1516 331.608 77.5636 331.432 76.8249 331.432C75.984 331.432 75.2397 331.636 74.592 332.045C73.9442 332.455 73.4073 333.043 72.9812 333.81C72.555 334.577 72.2567 335.5 72.0863 336.58C71.9045 337.591 71.8874 338.432 72.0352 339.102C72.1886 339.773 72.4897 340.276 72.9386 340.611C73.3931 340.946 73.984 341.114 74.7113 341.114C75.5408 341.114 76.2738 340.915 76.9102 340.517C77.5522 340.119 78.0835 339.543 78.5039 338.787C78.93 338.031 79.234 337.114 79.4158 336.034ZM84.9833 345L87.881 327.545H92.6197L90.3697 341.182H97.4265L96.7788 345H84.9833ZM106.331 327.545L103.433 345H98.6942L101.592 327.545H106.331ZM123.764 334.091H119.025C119.059 333.687 119.037 333.324 118.957 333C118.877 332.676 118.741 332.398 118.548 332.165C118.355 331.926 118.102 331.744 117.789 331.619C117.477 331.494 117.105 331.432 116.673 331.432C115.843 331.432 115.102 331.639 114.449 332.054C113.795 332.463 113.252 333.051 112.821 333.818C112.389 334.58 112.082 335.489 111.9 336.545C111.741 337.568 111.735 338.418 111.883 339.094C112.037 339.77 112.335 340.276 112.778 340.611C113.227 340.946 113.809 341.114 114.525 341.114C115.002 341.114 115.44 341.057 115.838 340.943C116.241 340.83 116.599 340.668 116.912 340.457C117.23 340.241 117.5 339.986 117.721 339.69C117.949 339.389 118.122 339.057 118.241 338.693H123.014C122.832 339.432 122.508 340.187 122.042 340.96C121.576 341.727 120.974 342.435 120.235 343.082C119.497 343.724 118.627 344.244 117.627 344.642C116.627 345.04 115.502 345.239 114.252 345.239C112.616 345.239 111.204 344.881 110.017 344.165C108.835 343.449 107.977 342.403 107.443 341.028C106.914 339.653 106.809 337.977 107.127 336C107.446 334.091 108.074 332.491 109.011 331.202C109.949 329.912 111.088 328.94 112.429 328.287C113.77 327.634 115.196 327.307 116.707 327.307C117.849 327.307 118.872 327.457 119.775 327.759C120.684 328.06 121.449 328.5 122.068 329.08C122.693 329.653 123.153 330.361 123.449 331.202C123.744 332.043 123.849 333.006 123.764 334.091ZM131.76 327.545L128.863 345H124.124L127.022 327.545H131.76ZM132.881 331.364L133.529 327.545H148.699L148.051 331.364H142.801L140.551 345H135.881L138.131 331.364H132.881ZM149.916 345H144.802L153.461 327.545H159.939L162.802 345H157.689L155.984 332.352H155.848L149.916 345ZM150.12 338.114H159.734L159.12 341.659H149.507L150.12 338.114ZM171.301 345H164.483L167.381 327.545H173.926C175.722 327.545 177.222 327.906 178.426 328.628C179.631 329.349 180.486 330.381 180.992 331.722C181.498 333.062 181.597 334.659 181.29 336.511C180.995 338.295 180.395 339.821 179.492 341.088C178.594 342.355 177.446 343.324 176.049 343.994C174.657 344.665 173.074 345 171.301 345ZM169.887 340.977H171.608C172.472 340.977 173.242 340.827 173.918 340.526C174.6 340.219 175.168 339.707 175.623 338.991C176.083 338.27 176.415 337.284 176.62 336.034C176.813 334.852 176.807 333.94 176.603 333.298C176.398 332.651 176.009 332.202 175.435 331.952C174.861 331.696 174.12 331.568 173.211 331.568H171.455L169.887 340.977ZM200.392 336.58C200.074 338.477 199.443 340.068 198.5 341.352C197.556 342.636 196.412 343.605 195.065 344.259C193.718 344.912 192.278 345.239 190.744 345.239C189.108 345.239 187.687 344.884 186.483 344.173C185.278 343.463 184.4 342.423 183.849 341.054C183.298 339.685 183.187 338.011 183.517 336.034C183.824 334.136 184.449 332.54 185.392 331.244C186.335 329.949 187.485 328.969 188.843 328.304C190.201 327.639 191.653 327.307 193.199 327.307C194.824 327.307 196.235 327.665 197.434 328.381C198.639 329.097 199.514 330.145 200.059 331.526C200.61 332.906 200.721 334.591 200.392 336.58ZM195.619 336.034C195.778 335.034 195.789 334.193 195.653 333.511C195.517 332.824 195.23 332.307 194.792 331.96C194.355 331.608 193.767 331.432 193.028 331.432C192.187 331.432 191.443 331.636 190.795 332.045C190.147 332.455 189.61 333.043 189.184 333.81C188.758 334.577 188.46 335.5 188.289 336.58C188.108 337.591 188.091 338.432 188.238 339.102C188.392 339.773 188.693 340.276 189.142 340.611C189.596 340.946 190.187 341.114 190.914 341.114C191.744 341.114 192.477 340.915 193.113 340.517C193.755 340.119 194.287 339.543 194.707 338.787C195.133 338.031 195.437 337.114 195.619 336.034ZM212.573 333C212.624 332.438 212.488 331.997 212.164 331.679C211.84 331.355 211.294 331.193 210.527 331.193C210.039 331.193 209.63 331.25 209.3 331.364C208.976 331.477 208.723 331.634 208.542 331.832C208.365 332.031 208.255 332.261 208.209 332.523C208.158 332.727 208.161 332.915 208.218 333.085C208.28 333.25 208.397 333.401 208.567 333.537C208.743 333.673 208.973 333.795 209.257 333.903C209.547 334.011 209.891 334.108 210.289 334.193L211.652 334.5C212.584 334.705 213.365 334.974 213.996 335.31C214.632 335.639 215.132 336.031 215.496 336.486C215.86 336.94 216.098 337.449 216.212 338.011C216.331 338.574 216.334 339.187 216.221 339.852C216.027 341 215.581 341.972 214.882 342.767C214.184 343.562 213.272 344.168 212.147 344.582C211.022 344.997 209.721 345.205 208.243 345.205C206.732 345.205 205.448 344.98 204.391 344.531C203.34 344.077 202.578 343.384 202.107 342.452C201.641 341.514 201.527 340.318 201.766 338.864H206.266C206.198 339.398 206.255 339.847 206.436 340.21C206.618 340.574 206.911 340.849 207.314 341.037C207.718 341.224 208.221 341.318 208.823 341.318C209.334 341.318 209.772 341.256 210.135 341.131C210.499 341.006 210.786 340.832 210.996 340.611C211.206 340.389 211.334 340.136 211.38 339.852C211.425 339.591 211.38 339.358 211.243 339.153C211.107 338.949 210.86 338.764 210.502 338.599C210.144 338.435 209.652 338.284 209.027 338.148L207.357 337.773C205.874 337.432 204.755 336.869 203.999 336.085C203.243 335.301 202.976 334.227 203.198 332.864C203.38 331.75 203.837 330.778 204.57 329.949C205.309 329.114 206.246 328.466 207.382 328.006C208.525 327.54 209.789 327.307 211.175 327.307C212.584 327.307 213.763 327.543 214.712 328.014C215.667 328.486 216.351 329.148 216.766 330C217.186 330.852 217.3 331.852 217.107 333H212.573Z" fill="white"/>
<path d="M130.458 116.167H95.1667C92.4924 116.167 89.9277 117.229 88.0367 119.12C86.1457 121.011 85.0833 123.576 85.0833 126.25V196.833C85.0833 199.508 86.1457 202.072 88.0367 203.963C89.9277 205.854 92.4924 206.917 95.1667 206.917H165.75C168.424 206.917 170.989 205.854 172.88 203.963C174.771 202.072 175.833 199.508 175.833 196.833V161.542" stroke="white" stroke-width="14" stroke-linecap="round" stroke-linejoin="round"/>
<path d="M168.271 108.604C170.277 106.598 172.997 105.472 175.833 105.472C178.67 105.472 181.39 106.598 183.396 108.604C185.402 110.61 186.528 113.33 186.528 116.167C186.528 119.003 185.402 121.723 183.396 123.729L135.5 171.625L115.333 176.667L120.375 156.5L168.271 108.604Z" stroke="white" stroke-width="14" stroke-linecap="round" stroke-linejoin="round"/>
</svg>
