<svg width="259" height="389" viewBox="0 0 259 389" fill="none" xmlns="http://www.w3.org/2000/svg">
<rect x="2.33002" y="40" width="256" height="349" rx="50" fill="#FF0000"/>
<circle cx="130.33" cy="40" r="37" fill="white" stroke="#FF0000" stroke-width="6"/>
<path d="M129.807 55.3977C128.216 55.3977 126.691 55.142 125.233 54.6307C123.775 54.1098 122.477 53.286 121.341 52.1591C120.205 51.0227 119.31 49.536 118.656 47.6989C118.003 45.8523 117.681 43.6032 117.69 40.9517C117.7 38.5559 117.993 36.4062 118.571 34.5028C119.149 32.59 119.973 30.9659 121.043 29.6307C122.122 28.2955 123.41 27.2775 124.906 26.5767C126.412 25.8665 128.093 25.5114 129.949 25.5114C131.985 25.5114 133.779 25.9091 135.332 26.7045C136.895 27.4905 138.145 28.5511 139.082 29.8864C140.02 31.2121 140.574 32.6894 140.744 34.3182H133.827C133.618 33.3996 133.159 32.7036 132.449 32.2301C131.748 31.7472 130.915 31.5057 129.949 31.5057C128.169 31.5057 126.838 32.2775 125.957 33.821C125.086 35.3646 124.641 37.429 124.622 40.0142H124.807C125.205 39.143 125.777 38.3949 126.526 37.7699C127.274 37.1449 128.131 36.6667 129.097 36.3352C130.072 35.9943 131.104 35.8239 132.193 35.8239C133.936 35.8239 135.474 36.2263 136.81 37.0312C138.145 37.8362 139.191 38.9394 139.949 40.3409C140.706 41.733 141.08 43.3286 141.071 45.1278C141.08 47.1544 140.607 48.9441 139.651 50.4972C138.694 52.0407 137.368 53.2434 135.673 54.1051C133.988 54.9669 132.032 55.3977 129.807 55.3977ZM129.764 50C130.626 50 131.398 49.7964 132.08 49.3892C132.761 48.982 133.296 48.428 133.685 47.7273C134.073 47.0265 134.262 46.2358 134.253 45.3551C134.262 44.465 134.073 43.6742 133.685 42.983C133.306 42.2917 132.776 41.7424 132.094 41.3352C131.421 40.928 130.65 40.7244 129.778 40.7244C129.144 40.7244 128.552 40.8428 128.003 41.0795C127.454 41.3163 126.975 41.6477 126.568 42.0739C126.17 42.4905 125.858 42.983 125.631 43.5511C125.403 44.1098 125.285 44.7159 125.276 45.3693C125.285 46.2311 125.484 47.0123 125.872 47.7131C126.26 48.4138 126.791 48.9725 127.463 49.3892C128.135 49.7964 128.902 50 129.764 50Z" fill="#FF0000"/>
<path d="M80.0075 268.818H72.1097C72.1665 268.146 72.1287 267.54 71.9961 267C71.8635 266.46 71.6362 265.996 71.3143 265.608C70.9923 265.21 70.5709 264.907 70.0501 264.699C69.5292 264.491 68.909 264.386 68.1893 264.386C66.8067 264.386 65.5709 264.732 64.4819 265.423C63.3929 266.105 62.4885 267.085 61.7688 268.364C61.0491 269.633 60.5378 271.148 60.2347 272.909C59.9696 274.614 59.9601 276.029 60.2063 277.156C60.462 278.283 60.9592 279.126 61.6978 279.685C62.4459 280.243 63.4165 280.523 64.6097 280.523C65.4052 280.523 66.1344 280.428 66.7972 280.239C67.4696 280.049 68.0662 279.779 68.587 279.429C69.1173 279.069 69.5671 278.643 69.9364 278.151C70.3152 277.649 70.604 277.095 70.8029 276.489H78.7575C78.4544 277.72 77.9147 278.979 77.1381 280.267C76.3616 281.545 75.3578 282.724 74.1268 283.804C72.8957 284.874 71.4469 285.741 69.7802 286.403C68.1135 287.066 66.2385 287.398 64.1552 287.398C61.4279 287.398 59.0747 286.801 57.0955 285.608C55.1258 284.415 53.6959 282.672 52.8058 280.381C51.9251 278.089 51.7499 275.295 52.2802 272C52.8105 268.818 53.8569 266.152 55.4194 264.003C56.9819 261.853 58.8806 260.234 61.1154 259.145C63.3503 258.056 65.7272 257.511 68.2461 257.511C70.1495 257.511 71.854 257.762 73.3597 258.264C74.8749 258.766 76.1486 259.5 77.1808 260.466C78.2224 261.422 78.9895 262.601 79.4819 264.003C79.9743 265.404 80.1495 267.009 80.0075 268.818ZM111.119 272.966C110.589 276.129 109.538 278.78 107.966 280.92C106.394 283.061 104.485 284.675 102.241 285.764C99.9968 286.853 97.5962 287.398 95.0394 287.398C92.3121 287.398 89.9447 286.806 87.9371 285.622C85.9296 284.438 84.4665 282.705 83.5479 280.423C82.6294 278.141 82.4447 275.352 82.994 272.057C83.5053 268.894 84.547 266.233 86.119 264.074C87.6909 261.915 89.6085 260.281 91.8718 259.173C94.1351 258.065 96.5546 257.511 99.1303 257.511C101.839 257.511 104.192 258.108 106.19 259.301C108.198 260.494 109.656 262.241 110.565 264.543C111.484 266.844 111.668 269.652 111.119 272.966ZM103.164 272.057C103.43 270.39 103.449 268.989 103.221 267.852C102.994 266.706 102.516 265.845 101.787 265.267C101.057 264.68 100.077 264.386 98.8462 264.386C97.4447 264.386 96.2042 264.727 95.1246 265.409C94.0451 266.091 93.1502 267.071 92.44 268.349C91.7298 269.628 91.2326 271.167 90.9485 272.966C90.6455 274.652 90.6171 276.053 90.8633 277.17C91.119 278.288 91.6209 279.126 92.369 279.685C93.1265 280.243 94.1114 280.523 95.3235 280.523C96.7061 280.523 97.9277 280.191 98.9883 279.528C100.058 278.866 100.944 277.904 101.645 276.645C102.355 275.385 102.861 273.856 103.164 272.057ZM112.444 287L117.273 257.909H129.83C131.989 257.909 133.807 258.335 135.284 259.188C136.762 260.04 137.822 261.238 138.466 262.781C139.11 264.325 139.262 266.129 138.921 268.193C138.58 270.295 137.822 272.109 136.648 273.634C135.483 275.149 133.997 276.318 132.188 277.142C130.389 277.956 128.372 278.364 126.137 278.364H118.637L119.659 272.227H125.569C126.516 272.227 127.349 272.066 128.069 271.744C128.788 271.413 129.371 270.949 129.816 270.352C130.261 269.746 130.55 269.027 130.682 268.193C130.815 267.36 130.753 266.65 130.498 266.062C130.251 265.466 129.825 265.011 129.219 264.699C128.623 264.377 127.86 264.216 126.932 264.216H124.148L120.341 287H112.444ZM151.421 257.909L146.591 287H138.694L143.523 257.909H151.421ZM157.891 287H149.368L163.8 257.909H174.596L179.368 287H170.846L168.005 265.92H167.777L157.891 287ZM158.232 275.523H174.255L173.232 281.432H157.209L158.232 275.523ZM182.17 287L187 257.909H199.556C201.716 257.909 203.538 258.302 205.025 259.088C206.512 259.874 207.582 261.006 208.235 262.483C208.889 263.96 209.045 265.731 208.704 267.795C208.363 269.879 207.61 271.635 206.446 273.065C205.29 274.486 203.818 275.565 202.028 276.304C200.248 277.033 198.25 277.398 196.034 277.398H188.534L189.556 271.261H195.466C196.394 271.261 197.208 271.148 197.909 270.92C198.609 270.684 199.178 270.314 199.613 269.812C200.049 269.301 200.333 268.629 200.466 267.795C200.598 266.962 200.532 266.285 200.267 265.764C200.002 265.234 199.561 264.846 198.946 264.599C198.33 264.344 197.568 264.216 196.659 264.216H193.875L190.068 287H182.17ZM201.431 273.648L206.488 287H197.909L193.022 273.648H201.431ZM34.5248 300.364L31.2648 320H25.9339L29.1938 300.364H34.5248ZM41.4617 320H33.7913L37.0512 300.364H44.4149C46.4347 300.364 48.1222 300.77 49.4774 301.581C50.8325 302.393 51.7945 303.553 52.3634 305.062C52.9323 306.57 53.0441 308.366 52.699 310.45C52.3666 312.457 51.6922 314.174 50.6759 315.599C49.6659 317.025 48.3747 318.114 46.8023 318.869C45.2362 319.623 43.4561 320 41.4617 320ZM39.8701 315.474H41.8069C42.7785 315.474 43.6446 315.305 44.4053 314.966C45.1723 314.621 45.8115 314.046 46.3229 313.24C46.8406 312.429 47.2146 311.32 47.4447 309.913C47.662 308.584 47.6556 307.558 47.4255 306.836C47.1954 306.107 46.7575 305.602 46.112 305.321C45.4664 305.033 44.6322 304.889 43.6095 304.889H41.6343L39.8701 315.474ZM53.593 320L56.853 300.364H71.005L70.2763 304.659H61.4553L60.9183 308.034H69.0107L68.282 312.33H60.1896L59.6527 315.705H68.4354L67.7067 320H53.593ZM90.6389 300.364L87.379 320H82.9301L77.5608 309.683H77.4458L75.7199 320H70.3889L73.6489 300.364H78.1745L83.4671 310.642H83.6205L85.308 300.364H90.6389ZM91.895 304.659L92.6237 300.364H109.69L108.962 304.659H103.055L100.524 320H95.27L97.8012 304.659H91.895ZM117.028 300.364L113.768 320H108.437L111.697 300.364H117.028ZM116.294 320L119.554 300.364H133.361L132.632 304.659H124.156L123.619 308.034H131.252L130.523 312.33H122.891L121.625 320H116.294ZM140.653 300.364L137.393 320H132.062L135.322 300.364H140.653ZM160.265 307.727H154.934C154.972 307.273 154.947 306.864 154.857 306.5C154.768 306.136 154.615 305.822 154.397 305.56C154.18 305.292 153.895 305.087 153.544 304.947C153.192 304.806 152.774 304.736 152.288 304.736C151.355 304.736 150.52 304.969 149.785 305.436C149.05 305.896 148.44 306.558 147.954 307.42C147.468 308.277 147.123 309.3 146.919 310.489C146.74 311.639 146.733 312.595 146.899 313.355C147.072 314.116 147.407 314.685 147.906 315.062C148.411 315.439 149.066 315.628 149.872 315.628C150.409 315.628 150.901 315.564 151.348 315.436C151.802 315.308 152.205 315.126 152.556 314.89C152.914 314.647 153.218 314.359 153.467 314.027C153.723 313.688 153.918 313.314 154.052 312.905H159.421C159.217 313.736 158.852 314.586 158.328 315.455C157.804 316.318 157.127 317.114 156.296 317.843C155.465 318.565 154.487 319.15 153.362 319.597C152.237 320.045 150.971 320.268 149.565 320.268C147.724 320.268 146.135 319.866 144.8 319.06C143.47 318.255 142.505 317.079 141.904 315.532C141.309 313.985 141.191 312.099 141.549 309.875C141.907 307.727 142.613 305.928 143.668 304.477C144.723 303.026 146.004 301.933 147.513 301.198C149.021 300.463 150.626 300.095 152.326 300.095C153.611 300.095 154.762 300.265 155.778 300.603C156.801 300.942 157.66 301.437 158.357 302.089C159.06 302.735 159.578 303.531 159.91 304.477C160.243 305.423 160.361 306.506 160.265 307.727ZM165.165 320H159.412L169.153 300.364H176.44L179.662 320H173.909L171.991 305.771H171.838L165.165 320ZM165.395 312.253H176.21L175.52 316.241H164.704L165.395 312.253ZM189.223 320H181.553L184.813 300.364H192.177C194.196 300.364 195.884 300.77 197.239 301.581C198.594 302.393 199.556 303.553 200.125 305.062C200.694 306.57 200.806 308.366 200.461 310.45C200.128 312.457 199.454 314.174 198.438 315.599C197.428 317.025 196.136 318.114 194.564 318.869C192.998 319.623 191.218 320 189.223 320ZM187.632 315.474H189.569C190.54 315.474 191.406 315.305 192.167 314.966C192.934 314.621 193.573 314.046 194.085 313.24C194.602 312.429 194.976 311.32 195.206 309.913C195.424 308.584 195.417 307.558 195.187 306.836C194.957 306.107 194.519 305.602 193.874 305.321C193.228 305.033 192.394 304.889 191.371 304.889H189.396L187.632 315.474ZM221.95 310.527C221.592 312.662 220.882 314.452 219.821 315.896C218.76 317.341 217.472 318.431 215.957 319.166C214.442 319.901 212.822 320.268 211.096 320.268C209.255 320.268 207.657 319.869 206.302 319.07C204.947 318.271 203.96 317.101 203.339 315.561C202.719 314.02 202.595 312.138 202.966 309.913C203.311 307.778 204.014 305.982 205.075 304.525C206.136 303.067 207.43 301.965 208.958 301.217C210.486 300.469 212.119 300.095 213.858 300.095C215.686 300.095 217.274 300.498 218.623 301.303C219.978 302.109 220.962 303.288 221.576 304.841C222.196 306.395 222.321 308.29 221.95 310.527ZM216.581 309.913C216.76 308.788 216.772 307.842 216.619 307.075C216.466 306.302 216.143 305.72 215.651 305.33C215.158 304.934 214.497 304.736 213.666 304.736C212.72 304.736 211.882 304.966 211.154 305.426C210.425 305.886 209.821 306.548 209.342 307.411C208.862 308.274 208.527 309.312 208.335 310.527C208.13 311.665 208.111 312.611 208.277 313.365C208.45 314.119 208.789 314.685 209.294 315.062C209.805 315.439 210.47 315.628 211.288 315.628C212.221 315.628 213.046 315.404 213.762 314.957C214.484 314.509 215.082 313.86 215.555 313.01C216.034 312.16 216.376 311.128 216.581 309.913ZM222.844 320L226.104 300.364H234.58C236.037 300.364 237.268 300.629 238.271 301.159C239.275 301.69 239.997 302.454 240.438 303.451C240.879 304.448 240.985 305.643 240.755 307.037C240.524 308.443 240.016 309.629 239.23 310.594C238.45 311.553 237.456 312.282 236.248 312.78C235.046 313.272 233.698 313.518 232.202 313.518H227.139L227.83 309.376H231.818C232.445 309.376 232.995 309.3 233.468 309.146C233.941 308.987 234.324 308.737 234.618 308.398C234.912 308.053 235.104 307.599 235.193 307.037C235.283 306.474 235.238 306.017 235.059 305.666C234.88 305.308 234.583 305.046 234.168 304.88C233.752 304.707 233.237 304.621 232.624 304.621H230.745L228.175 320H222.844ZM235.845 310.987L239.259 320H233.468L230.169 310.987H235.845ZM66.1843 349H59.3661L62.2638 331.545H68.8093C70.6048 331.545 72.1048 331.906 73.3093 332.628C74.5139 333.349 75.369 334.381 75.8746 335.722C76.3803 337.062 76.4798 338.659 76.1729 340.511C75.8775 342.295 75.2781 343.821 74.3746 345.088C73.4769 346.355 72.3292 347.324 70.9315 347.994C69.5394 348.665 67.957 349 66.1843 349ZM64.7695 344.977H66.4911C67.3548 344.977 68.1246 344.827 68.8008 344.526C69.4826 344.219 70.0508 343.707 70.5053 342.991C70.9656 342.27 71.2979 341.284 71.5025 340.034C71.6957 338.852 71.69 337.94 71.4854 337.298C71.2809 336.651 70.8917 336.202 70.3178 335.952C69.744 335.696 69.0025 335.568 68.0934 335.568H66.3377L64.7695 344.977ZM76.9677 349L79.8654 331.545H92.445L91.7972 335.364H83.9563L83.479 338.364H90.6722L90.0245 342.182H82.8313L82.354 345.182H90.1609L89.5131 349H76.9677ZM114.764 338.091H110.025C110.059 337.687 110.037 337.324 109.957 337C109.877 336.676 109.741 336.398 109.548 336.165C109.355 335.926 109.102 335.744 108.789 335.619C108.477 335.494 108.105 335.432 107.673 335.432C106.843 335.432 106.102 335.639 105.449 336.054C104.795 336.463 104.252 337.051 103.821 337.818C103.389 338.58 103.082 339.489 102.9 340.545C102.741 341.568 102.735 342.418 102.883 343.094C103.037 343.77 103.335 344.276 103.778 344.611C104.227 344.946 104.809 345.114 105.525 345.114C106.002 345.114 106.44 345.057 106.838 344.943C107.241 344.83 107.599 344.668 107.912 344.457C108.23 344.241 108.5 343.986 108.721 343.69C108.949 343.389 109.122 343.057 109.241 342.693H114.014C113.832 343.432 113.508 344.187 113.042 344.96C112.576 345.727 111.974 346.435 111.235 347.082C110.497 347.724 109.627 348.244 108.627 348.642C107.627 349.04 106.502 349.239 105.252 349.239C103.616 349.239 102.204 348.881 101.017 348.165C99.8349 347.449 98.9769 346.403 98.4428 345.028C97.9144 343.653 97.8093 341.977 98.1275 340C98.4457 338.091 99.0735 336.491 100.011 335.202C100.949 333.912 102.088 332.94 103.429 332.287C104.77 331.634 106.196 331.307 107.707 331.307C108.849 331.307 109.872 331.457 110.775 331.759C111.684 332.06 112.449 332.5 113.068 333.08C113.693 333.653 114.153 334.361 114.449 335.202C114.744 336.043 114.849 337.006 114.764 338.091ZM133.431 340.58C133.113 342.477 132.482 344.068 131.539 345.352C130.596 346.636 129.451 347.605 128.104 348.259C126.757 348.912 125.317 349.239 123.783 349.239C122.147 349.239 120.726 348.884 119.522 348.173C118.317 347.463 117.439 346.423 116.888 345.054C116.337 343.685 116.226 342.011 116.556 340.034C116.863 338.136 117.488 336.54 118.431 335.244C119.374 333.949 120.525 332.969 121.882 332.304C123.24 331.639 124.692 331.307 126.238 331.307C127.863 331.307 129.275 331.665 130.473 332.381C131.678 333.097 132.553 334.145 133.098 335.526C133.65 336.906 133.76 338.591 133.431 340.58ZM128.658 340.034C128.817 339.034 128.828 338.193 128.692 337.511C128.556 336.824 128.269 336.307 127.831 335.96C127.394 335.608 126.806 335.432 126.067 335.432C125.226 335.432 124.482 335.636 123.834 336.045C123.186 336.455 122.65 337.043 122.223 337.81C121.797 338.577 121.499 339.5 121.328 340.58C121.147 341.591 121.13 342.432 121.277 343.102C121.431 343.773 121.732 344.276 122.181 344.611C122.635 344.946 123.226 345.114 123.953 345.114C124.783 345.114 125.516 344.915 126.152 344.517C126.794 344.119 127.326 343.543 127.746 342.787C128.172 342.031 128.476 341.114 128.658 340.034ZM137.123 331.545H143.021L145.441 341.432H145.646L151.339 331.545H157.237L154.339 349H149.703L151.373 338.909H151.237L145.714 348.864H142.919L140.703 338.841H140.566L138.862 349H134.225L137.123 331.545ZM156.585 349L159.483 331.545H167.017C168.312 331.545 169.403 331.801 170.289 332.312C171.176 332.824 171.812 333.543 172.199 334.469C172.585 335.395 172.676 336.477 172.471 337.716C172.267 338.977 171.812 340.065 171.108 340.98C170.409 341.889 169.517 342.591 168.431 343.085C167.352 343.574 166.142 343.818 164.801 343.818H160.301L160.914 340.136H164.46C165.028 340.136 165.528 340.04 165.96 339.847C166.392 339.648 166.741 339.369 167.008 339.011C167.275 338.648 167.449 338.216 167.528 337.716C167.608 337.216 167.571 336.79 167.417 336.438C167.27 336.08 167.014 335.807 166.65 335.619C166.292 335.426 165.835 335.33 165.278 335.33H163.608L161.324 349H156.585ZM172.335 349L175.233 331.545H182.767C184.062 331.545 185.156 331.781 186.048 332.253C186.94 332.724 187.582 333.403 187.974 334.29C188.366 335.176 188.46 336.239 188.255 337.477C188.051 338.727 187.599 339.781 186.9 340.639C186.207 341.491 185.324 342.139 184.25 342.582C183.181 343.02 181.983 343.239 180.653 343.239H176.153L176.767 339.557H180.312C180.869 339.557 181.358 339.489 181.778 339.352C182.199 339.21 182.539 338.989 182.801 338.688C183.062 338.381 183.233 337.977 183.312 337.477C183.392 336.977 183.352 336.571 183.193 336.259C183.034 335.94 182.77 335.707 182.4 335.56C182.031 335.406 181.574 335.33 181.028 335.33H179.358L177.074 349H172.335ZM183.892 340.989L186.926 349H181.778L178.846 340.989H183.892ZM193.135 349H188.021L196.68 331.545H203.157L206.021 349H200.907L199.203 336.352H199.066L193.135 349ZM193.339 342.114H202.953L202.339 345.659H192.725L193.339 342.114Z" fill="white"/>
<path d="M104.711 128.273V201H84.9668V128.273H104.711ZM142.051 201H114.068V128.273H141.767C149.248 128.273 155.711 129.729 161.156 132.641C166.625 135.529 170.839 139.696 173.798 145.141C176.781 150.562 178.273 157.061 178.273 164.636C178.273 172.212 176.793 178.723 173.834 184.168C170.875 189.589 166.684 193.756 161.263 196.668C155.842 199.556 149.438 201 142.051 201ZM133.813 184.239H141.341C144.94 184.239 148.005 183.659 150.539 182.499C153.095 181.339 155.037 179.338 156.362 176.497C157.712 173.656 158.387 169.703 158.387 164.636C158.387 159.57 157.7 155.616 156.327 152.776C154.977 149.935 152.989 147.934 150.361 146.774C147.757 145.614 144.561 145.034 140.773 145.034H133.813V184.239Z" fill="white"/>
</svg>
