<svg width="259" height="389" viewBox="0 0 259 389" fill="none" xmlns="http://www.w3.org/2000/svg">
<rect x="2.33008" y="40" width="256" height="349" rx="50" fill="#FF0000"/>
<circle cx="130.33" cy="40" r="37" fill="white" stroke="#FF0000" stroke-width="6"/>
<path d="M129.509 55.3977C127.245 55.3977 125.223 55.0379 123.443 54.3182C121.672 53.589 120.28 52.6042 119.267 51.3636C118.263 50.1136 117.761 48.7027 117.761 47.1307C117.761 45.928 118.05 44.8248 118.628 43.821C119.205 42.8172 119.987 41.9839 120.972 41.321C121.966 40.6487 123.074 40.2178 124.295 40.0284V39.8011C122.695 39.5076 121.384 38.7642 120.361 37.571C119.348 36.3778 118.841 34.9811 118.841 33.3807C118.841 31.8655 119.3 30.5161 120.219 29.3324C121.147 28.1487 122.411 27.2159 124.011 26.5341C125.621 25.8523 127.454 25.5114 129.509 25.5114C131.563 25.5114 133.391 25.8523 134.991 26.5341C136.601 27.2159 137.866 28.1487 138.784 29.3324C139.712 30.5161 140.176 31.8655 140.176 33.3807C140.176 34.9905 139.66 36.392 138.628 37.5852C137.605 38.7689 136.303 39.5076 134.722 39.8011V40.0284C135.934 40.2178 137.032 40.6487 138.017 41.321C139.011 41.9839 139.797 42.8172 140.375 43.821C140.962 44.8248 141.256 45.928 141.256 47.1307C141.256 48.7027 140.749 50.1136 139.736 51.3636C138.723 52.6042 137.33 53.589 135.56 54.3182C133.798 55.0379 131.781 55.3977 129.509 55.3977ZM129.509 50.4119C130.37 50.4119 131.128 50.2509 131.781 49.929C132.435 49.5975 132.946 49.1383 133.315 48.5511C133.694 47.964 133.884 47.3011 133.884 46.5625C133.884 45.8049 133.694 45.1326 133.315 44.5455C132.937 43.9583 132.416 43.4991 131.753 43.1676C131.099 42.8267 130.351 42.6562 129.509 42.6562C128.675 42.6562 127.927 42.8267 127.264 43.1676C126.601 43.4991 126.08 43.9583 125.702 44.5455C125.323 45.1326 125.134 45.8049 125.134 46.5625C125.134 47.3011 125.318 47.964 125.688 48.5511C126.066 49.1288 126.582 49.5833 127.236 49.9148C127.899 50.2462 128.656 50.4119 129.509 50.4119ZM129.509 37.6989C130.247 37.6989 130.901 37.5473 131.469 37.2443C132.046 36.9413 132.496 36.5199 132.818 35.9801C133.15 35.4403 133.315 34.8295 133.315 34.1477C133.315 33.4659 133.15 32.8646 132.818 32.3438C132.496 31.8229 132.051 31.4157 131.483 31.1222C130.915 30.8191 130.257 30.6676 129.509 30.6676C128.77 30.6676 128.112 30.8191 127.534 31.1222C126.956 31.4157 126.507 31.8229 126.185 32.3438C125.863 32.8646 125.702 33.4659 125.702 34.1477C125.702 34.8295 125.863 35.4403 126.185 35.9801C126.516 36.5104 126.971 36.9318 127.548 37.2443C128.126 37.5473 128.779 37.6989 129.509 37.6989Z" fill="#FF0000"/>
<path d="M49.7696 271.545H43.0566C43.1048 270.974 43.0727 270.459 42.96 270C42.8473 269.541 42.6541 269.147 42.3804 268.817C42.1067 268.479 41.7486 268.221 41.3058 268.044C40.8631 267.867 40.3359 267.778 39.7242 267.778C38.549 267.778 37.4986 268.072 36.5729 268.66C35.6472 269.239 34.8785 270.072 34.2668 271.159C33.655 272.238 33.2204 273.526 32.9628 275.023C32.7374 276.472 32.7294 277.675 32.9387 278.633C33.156 279.591 33.5786 280.307 34.2064 280.782C34.8423 281.257 35.6673 281.494 36.6816 281.494C37.3577 281.494 37.9775 281.414 38.5409 281.253C39.1124 281.092 39.6195 280.862 40.0622 280.565C40.513 280.259 40.8953 279.897 41.2093 279.478C41.5312 279.051 41.7767 278.58 41.9458 278.065H48.7071C48.4495 279.112 47.9907 280.182 47.3307 281.277C46.6707 282.364 45.8174 283.366 44.771 284.283C43.7246 285.193 42.4931 285.929 41.0764 286.493C39.6598 287.056 38.066 287.338 36.2952 287.338C33.977 287.338 31.9768 286.831 30.2945 285.817C28.6202 284.803 27.4048 283.321 26.6482 281.374C25.8996 279.426 25.7507 277.051 26.2014 274.25C26.6522 271.545 27.5416 269.28 28.8698 267.452C30.1979 265.625 31.8118 264.249 33.7114 263.323C35.611 262.397 37.6314 261.935 39.7725 261.935C41.3904 261.935 42.8392 262.148 44.1191 262.575C45.4069 263.001 46.4896 263.625 47.3669 264.446C48.2523 265.259 48.9043 266.261 49.3229 267.452C49.7414 268.644 49.8904 270.008 49.7696 271.545ZM76.2144 275.071C75.7636 277.759 74.8702 280.013 73.534 281.832C72.1978 283.652 70.5759 285.024 68.6682 285.95C66.7606 286.875 64.7201 287.338 62.5468 287.338C60.2286 287.338 58.2163 286.835 56.5099 285.829C54.8034 284.823 53.5598 283.35 52.779 281.41C51.9983 279.47 51.8413 277.099 52.3081 274.298C52.7428 271.61 53.6282 269.348 54.9644 267.513C56.3006 265.678 57.9305 264.289 59.8543 263.347C61.7781 262.406 63.8347 261.935 66.0241 261.935C68.3261 261.935 70.3264 262.442 72.0248 263.456C73.7312 264.47 74.9708 265.955 75.7435 267.911C76.5243 269.867 76.6813 272.254 76.2144 275.071ZM69.453 274.298C69.6784 272.882 69.6945 271.69 69.5013 270.724C69.3081 269.75 68.9017 269.018 68.2819 268.527C67.6621 268.028 66.829 267.778 65.7826 267.778C64.5913 267.778 63.5368 268.068 62.6192 268.648C61.7016 269.227 60.941 270.06 60.3373 271.147C59.7336 272.234 59.311 273.542 59.0695 275.071C58.8119 276.504 58.7878 277.695 58.9971 278.645C59.2144 279.595 59.641 280.307 60.2769 280.782C60.9208 281.257 61.758 281.494 62.7883 281.494C63.9635 281.494 65.0018 281.213 65.9033 280.649C66.8129 280.086 67.5655 279.269 68.1611 278.198C68.7648 277.128 69.1955 275.828 69.453 274.298ZM103.275 275.071C102.824 277.759 101.931 280.013 100.595 281.832C99.2584 283.652 97.6365 285.024 95.7288 285.95C93.8211 286.875 91.7806 287.338 89.6073 287.338C87.2892 287.338 85.2768 286.835 83.5704 285.829C81.864 284.823 80.6204 283.35 79.8396 281.41C79.0588 279.47 78.9018 277.099 79.3687 274.298C79.8034 271.61 80.6888 269.348 82.0249 267.513C83.3611 265.678 84.9911 264.289 86.9149 263.347C88.8386 262.406 90.8952 261.935 93.0846 261.935C95.3867 261.935 97.3869 262.442 99.0853 263.456C100.792 264.47 102.031 265.955 102.804 267.911C103.585 269.867 103.742 272.254 103.275 275.071ZM96.5136 274.298C96.739 272.882 96.7551 271.69 96.5619 270.724C96.3687 269.75 95.9622 269.018 95.3424 268.527C94.7226 268.028 93.8895 267.778 92.8431 267.778C91.6518 267.778 90.5974 268.068 89.6798 268.648C88.7622 269.227 88.0015 270.06 87.3978 271.147C86.7941 272.234 86.3715 273.542 86.1301 275.071C85.8725 276.504 85.8483 277.695 86.0576 278.645C86.2749 279.595 86.7016 280.307 87.3374 280.782C87.9814 281.257 88.8185 281.494 89.8488 281.494C91.024 281.494 92.0624 281.213 92.9639 280.649C93.8734 280.086 94.626 279.269 95.2217 278.198C95.8254 277.128 96.256 275.828 96.5136 274.298ZM104.401 287L108.506 262.273H119.179C121.014 262.273 122.564 262.607 123.828 263.275C125.091 263.943 126.001 264.905 126.556 266.161C127.112 267.416 127.245 268.921 126.955 270.676C126.665 272.447 126.025 273.94 125.035 275.156C124.053 276.363 122.801 277.281 121.28 277.908C119.767 278.528 118.068 278.838 116.185 278.838H109.81L110.679 273.622H115.702C116.491 273.622 117.183 273.526 117.779 273.332C118.374 273.131 118.857 272.817 119.228 272.391C119.598 271.956 119.839 271.384 119.952 270.676C120.065 269.968 120.008 269.392 119.783 268.95C119.558 268.499 119.183 268.169 118.66 267.96C118.137 267.742 117.489 267.634 116.716 267.634H114.35L111.114 287H104.401ZM120.773 275.651L125.071 287H117.779L113.625 275.651H120.773ZM137.103 287H127.444L131.549 262.273H140.822C143.365 262.273 145.49 262.784 147.197 263.806C148.903 264.828 150.114 266.289 150.831 268.189C151.547 270.089 151.688 272.35 151.253 274.974C150.835 277.502 149.986 279.663 148.706 281.458C147.434 283.253 145.808 284.625 143.828 285.575C141.856 286.525 139.614 287 137.103 287ZM135.099 281.301H137.538C138.761 281.301 139.852 281.088 140.81 280.661C141.775 280.227 142.58 279.502 143.224 278.488C143.876 277.466 144.347 276.069 144.637 274.298C144.911 272.624 144.903 271.332 144.613 270.423C144.323 269.505 143.772 268.869 142.959 268.515C142.146 268.153 141.095 267.972 139.807 267.972H137.32L135.099 281.301ZM163.198 262.273L159.092 287H152.379L156.484 262.273H163.198ZM187.774 262.273L183.669 287H178.066L171.305 274.009H171.16L168.987 287H162.274L166.379 262.273H172.078L178.743 275.216H178.936L181.061 262.273H187.774ZM193.267 287H186.023L198.29 262.273H207.466L211.523 287H204.279L201.864 269.082H201.671L193.267 287ZM193.557 277.244H207.177L206.307 282.267H192.688L193.557 277.244ZM213.905 287L218.01 262.273H228.683C230.518 262.273 232.068 262.607 233.332 263.275C234.595 263.943 235.505 264.905 236.06 266.161C236.616 267.416 236.748 268.921 236.459 270.676C236.169 272.447 235.529 273.94 234.539 275.156C233.557 276.363 232.305 277.281 230.784 277.908C229.271 278.528 227.572 278.838 225.689 278.838H219.314L220.183 273.622H225.206C225.995 273.622 226.687 273.526 227.283 273.332C227.878 273.131 228.361 272.817 228.731 272.391C229.102 271.956 229.343 271.384 229.456 270.676C229.569 269.968 229.512 269.392 229.287 268.95C229.061 268.499 228.687 268.169 228.164 267.96C227.641 267.742 226.993 267.634 226.22 267.634H223.854L220.618 287H213.905ZM230.277 275.651L234.575 287H227.283L223.129 275.651H230.277ZM21.7532 321L25.0131 301.364H33.489C34.9464 301.364 36.1768 301.629 37.1804 302.159C38.1839 302.69 38.9062 303.454 39.3473 304.451C39.7884 305.448 39.8938 306.643 39.6637 308.037C39.4336 309.443 38.9254 310.629 38.1392 311.594C37.3594 312.553 36.3654 313.282 35.1573 313.78C33.9556 314.272 32.6069 314.518 31.1112 314.518H26.0487L26.739 310.376H30.7276C31.354 310.376 31.9038 310.3 32.3768 310.146C32.8498 309.987 33.2333 309.737 33.5273 309.398C33.8214 309.053 34.0131 308.599 34.1026 308.037C34.1921 307.474 34.1474 307.017 33.9684 306.666C33.7894 306.308 33.4922 306.046 33.0767 305.88C32.6612 305.707 32.1467 305.621 31.533 305.621H29.6538L27.0842 321H21.7532ZM34.7546 311.987L38.168 321H32.3768L29.0785 311.987H34.7546ZM40.052 321L43.312 301.364H57.464L56.7353 305.659H47.9142L47.3773 309.034H55.4696L54.7409 313.33H46.6486L46.1117 316.705H54.8944L54.1657 321H40.052ZM58.8422 305.659L59.5709 301.364H76.6377L75.909 305.659H70.0028L67.4715 321H62.2172L64.7485 305.659H58.8422ZM83.975 301.364L80.715 321H75.3841L78.644 301.364H83.975ZM83.2415 321L86.5014 301.364H94.9773C96.4347 301.364 97.6651 301.629 98.6687 302.159C99.6722 302.69 100.395 303.454 100.836 304.451C101.277 305.448 101.382 306.643 101.152 308.037C100.922 309.443 100.414 310.629 99.6275 311.594C98.8477 312.553 97.8537 313.282 96.6456 313.78C95.4439 314.272 94.0952 314.518 92.5994 314.518H87.5369L88.2273 310.376H92.2159C92.8423 310.376 93.392 310.3 93.8651 310.146C94.3381 309.987 94.7216 309.737 95.0156 309.398C95.3097 309.053 95.5014 308.599 95.5909 308.037C95.6804 307.474 95.6357 307.017 95.4567 306.666C95.2777 306.308 94.9805 306.046 94.565 305.88C94.1495 305.707 93.6349 305.621 93.0213 305.621H91.142L88.5724 321H83.2415ZM96.2429 311.987L99.6562 321H93.8651L90.5668 311.987H96.2429ZM122.135 311.527C121.778 313.662 121.068 315.452 120.007 316.896C118.946 318.341 117.658 319.431 116.143 320.166C114.628 320.901 113.008 321.268 111.282 321.268C109.441 321.268 107.843 320.869 106.488 320.07C105.133 319.271 104.145 318.101 103.525 316.561C102.905 315.02 102.78 313.138 103.151 310.913C103.496 308.778 104.199 306.982 105.26 305.525C106.322 304.067 107.616 302.965 109.144 302.217C110.671 301.469 112.305 301.095 114.043 301.095C115.871 301.095 117.46 301.498 118.808 302.303C120.164 303.109 121.148 304.288 121.762 305.841C122.382 307.395 122.506 309.29 122.135 311.527ZM116.766 310.913C116.945 309.788 116.958 308.842 116.805 308.075C116.651 307.302 116.328 306.72 115.836 306.33C115.344 305.934 114.682 305.736 113.851 305.736C112.905 305.736 112.068 305.966 111.339 306.426C110.611 306.886 110.007 307.548 109.527 308.411C109.048 309.274 108.712 310.312 108.52 311.527C108.316 312.665 108.297 313.611 108.463 314.365C108.635 315.119 108.974 315.685 109.479 316.062C109.991 316.439 110.655 316.628 111.474 316.628C112.407 316.628 113.231 316.404 113.947 315.957C114.67 315.509 115.267 314.86 115.74 314.01C116.22 313.16 116.562 312.128 116.766 310.913ZM140.106 309.188L139.454 313.176H130.249L130.901 309.188H140.106ZM146.602 321L149.862 301.364H164.014L163.285 305.659H154.464L153.927 309.034H162.019L161.291 313.33H153.198L152.661 316.705H161.444L160.715 321H146.602ZM183.648 301.364L180.388 321H175.939L170.57 310.683H170.455L168.729 321H163.398L166.658 301.364H171.183L176.476 311.642H176.629L178.317 301.364H183.648ZM191.539 301.364L193.265 315.209H193.418L199.746 301.364H205.767L196.026 321H188.739L185.517 301.364H191.539ZM212.99 301.364L209.73 321H204.399L207.659 301.364H212.99ZM232.851 311.527C232.493 313.662 231.784 315.452 230.723 316.896C229.662 318.341 228.374 319.431 226.859 320.166C225.344 320.901 223.723 321.268 221.998 321.268C220.157 321.268 218.559 320.869 217.204 320.07C215.848 319.271 214.861 318.101 214.241 316.561C213.621 315.02 213.496 313.138 213.867 310.913C214.212 308.778 214.915 306.982 215.976 305.525C217.037 304.067 218.332 302.965 219.859 302.217C221.387 301.469 223.02 301.095 224.759 301.095C226.587 301.095 228.176 301.498 229.524 302.303C230.879 303.109 231.864 304.288 232.477 305.841C233.097 307.395 233.222 309.29 232.851 311.527ZM227.482 310.913C227.661 309.788 227.674 308.842 227.52 308.075C227.367 307.302 227.044 306.72 226.552 306.33C226.06 305.934 225.398 305.736 224.567 305.736C223.621 305.736 222.784 305.966 222.055 306.426C221.326 306.886 220.722 307.548 220.243 308.411C219.764 309.274 219.428 310.312 219.236 311.527C219.032 312.665 219.013 313.611 219.179 314.365C219.351 315.119 219.69 315.685 220.195 316.062C220.706 316.439 221.371 316.628 222.189 316.628C223.123 316.628 223.947 316.404 224.663 315.957C225.385 315.509 225.983 314.86 226.456 314.01C226.935 313.16 227.277 312.128 227.482 310.913ZM43.8952 350H37.0771L39.9748 332.545H46.5202C48.3157 332.545 49.8157 332.906 51.0202 333.628C52.2248 334.349 53.0799 335.381 53.5856 336.722C54.0913 338.062 54.1907 339.659 53.8839 341.511C53.5884 343.295 52.989 344.821 52.0856 346.088C51.1879 347.355 50.0401 348.324 48.6424 348.994C47.2504 349.665 45.668 350 43.8952 350ZM42.4805 345.977H44.2021C45.0657 345.977 45.8356 345.827 46.5117 345.526C47.1935 345.219 47.7617 344.707 48.2163 343.991C48.6765 343.27 49.0089 342.284 49.2134 341.034C49.4066 339.852 49.4009 338.94 49.1964 338.298C48.9918 337.651 48.6026 337.202 48.0288 336.952C47.4549 336.696 46.7134 336.568 45.8043 336.568H44.0487L42.4805 345.977ZM54.6786 350L57.5763 332.545H70.1559L69.5082 336.364H61.6673L61.19 339.364H68.3832L67.7354 343.182H60.5423L60.065 346.182H67.8718L67.2241 350H54.6786ZM76.1623 336.364L76.81 332.545H91.9805L91.3327 336.364H86.0827L83.8327 350H79.1623L81.4123 336.364H76.1623ZM104.093 332.545H108.832L106.974 343.727C106.758 345.057 106.252 346.207 105.457 347.179C104.667 348.145 103.662 348.892 102.44 349.42C101.218 349.943 99.8604 350.205 98.3661 350.205C96.8604 350.205 95.5877 349.943 94.5479 349.42C93.5082 348.892 92.7525 348.145 92.2809 347.179C91.815 346.207 91.69 345.057 91.9059 343.727L93.7638 332.545H98.5025L96.7127 343.318C96.6275 343.858 96.6701 344.338 96.8406 344.759C97.011 345.179 97.2866 345.511 97.6673 345.756C98.0479 345.994 98.5082 346.114 99.0479 346.114C99.5934 346.114 100.096 345.994 100.556 345.756C101.022 345.511 101.409 345.179 101.716 344.759C102.022 344.338 102.218 343.858 102.304 343.318L104.093 332.545ZM131.053 339.091H126.314C126.348 338.687 126.326 338.324 126.246 338C126.167 337.676 126.03 337.398 125.837 337.165C125.644 336.926 125.391 336.744 125.078 336.619C124.766 336.494 124.394 336.432 123.962 336.432C123.132 336.432 122.391 336.639 121.738 337.054C121.084 337.463 120.542 338.051 120.11 338.818C119.678 339.58 119.371 340.489 119.189 341.545C119.03 342.568 119.025 343.418 119.172 344.094C119.326 344.77 119.624 345.276 120.067 345.611C120.516 345.946 121.098 346.114 121.814 346.114C122.292 346.114 122.729 346.057 123.127 345.943C123.53 345.83 123.888 345.668 124.201 345.457C124.519 345.241 124.789 344.986 125.01 344.69C125.238 344.389 125.411 344.057 125.53 343.693H130.303C130.121 344.432 129.797 345.187 129.331 345.96C128.865 346.727 128.263 347.435 127.525 348.082C126.786 348.724 125.917 349.244 124.917 349.642C123.917 350.04 122.792 350.239 121.542 350.239C119.905 350.239 118.493 349.881 117.306 349.165C116.124 348.449 115.266 347.403 114.732 346.028C114.203 344.653 114.098 342.977 114.417 341C114.735 339.091 115.363 337.491 116.3 336.202C117.238 334.912 118.377 333.94 119.718 333.287C121.059 332.634 122.485 332.307 123.996 332.307C125.138 332.307 126.161 332.457 127.064 332.759C127.973 333.06 128.738 333.5 129.357 334.08C129.982 334.653 130.442 335.361 130.738 336.202C131.033 337.043 131.138 338.006 131.053 339.091ZM149.72 341.58C149.402 343.477 148.771 345.068 147.828 346.352C146.885 347.636 145.74 348.605 144.393 349.259C143.047 349.912 141.606 350.239 140.072 350.239C138.436 350.239 137.015 349.884 135.811 349.173C134.606 348.463 133.728 347.423 133.177 346.054C132.626 344.685 132.515 343.011 132.845 341.034C133.152 339.136 133.777 337.54 134.72 336.244C135.663 334.949 136.814 333.969 138.172 333.304C139.529 332.639 140.981 332.307 142.527 332.307C144.152 332.307 145.564 332.665 146.762 333.381C147.967 334.097 148.842 335.145 149.387 336.526C149.939 337.906 150.049 339.591 149.72 341.58ZM144.947 341.034C145.106 340.034 145.118 339.193 144.981 338.511C144.845 337.824 144.558 337.307 144.12 336.96C143.683 336.608 143.095 336.432 142.356 336.432C141.515 336.432 140.771 336.636 140.123 337.045C139.475 337.455 138.939 338.043 138.512 338.81C138.086 339.577 137.788 340.5 137.618 341.58C137.436 342.591 137.419 343.432 137.566 344.102C137.72 344.773 138.021 345.276 138.47 345.611C138.924 345.946 139.515 346.114 140.243 346.114C141.072 346.114 141.805 345.915 142.441 345.517C143.083 345.119 143.615 344.543 144.035 343.787C144.461 343.031 144.765 342.114 144.947 341.034ZM153.412 332.545H159.31L161.73 342.432H161.935L167.628 332.545H173.526L170.628 350H165.992L167.662 339.909H167.526L162.003 349.864H159.208L156.992 339.841H156.855L155.151 350H150.515L153.412 332.545ZM172.874 350L175.772 332.545H183.306C184.601 332.545 185.692 332.801 186.578 333.312C187.465 333.824 188.101 334.543 188.488 335.469C188.874 336.395 188.965 337.477 188.76 338.716C188.556 339.977 188.101 341.065 187.397 341.98C186.698 342.889 185.806 343.591 184.721 344.085C183.641 344.574 182.431 344.818 181.09 344.818H176.59L177.203 341.136H180.749C181.317 341.136 181.817 341.04 182.249 340.847C182.681 340.648 183.03 340.369 183.297 340.011C183.564 339.648 183.738 339.216 183.817 338.716C183.897 338.216 183.86 337.79 183.706 337.438C183.559 337.08 183.303 336.807 182.939 336.619C182.581 336.426 182.124 336.33 181.567 336.33H179.897L177.613 350H172.874ZM188.624 350L191.522 332.545H199.056C200.351 332.545 201.445 332.781 202.337 333.253C203.229 333.724 203.871 334.403 204.263 335.29C204.655 336.176 204.749 337.239 204.544 338.477C204.34 339.727 203.888 340.781 203.189 341.639C202.496 342.491 201.613 343.139 200.539 343.582C199.471 344.02 198.272 344.239 196.942 344.239H192.442L193.056 340.557H196.601C197.158 340.557 197.647 340.489 198.067 340.352C198.488 340.21 198.828 339.989 199.09 339.688C199.351 339.381 199.522 338.977 199.601 338.477C199.681 337.977 199.641 337.571 199.482 337.259C199.323 336.94 199.059 336.707 198.689 336.56C198.32 336.406 197.863 336.33 197.317 336.33H195.647L193.363 350H188.624ZM200.181 341.989L203.215 350H198.067L195.135 341.989H200.181ZM209.424 350H204.31L212.969 332.545H219.446L222.31 350H217.196L215.492 337.352H215.355L209.424 350ZM209.628 343.114H219.242L218.628 346.659H209.015L209.628 343.114Z" fill="white"/>
<g clip-path="url(#clip0_103_126)">
<path d="M161.333 114.5H68.2083V194.667H161.333V114.5Z" stroke="white" stroke-width="14" stroke-linecap="round" stroke-linejoin="round"/>
<path d="M161.333 145.333H186.167L204.792 163.833V194.667H161.333V145.333Z" stroke="white" stroke-width="14" stroke-linecap="round" stroke-linejoin="round"/>
<path d="M96.1458 225.5C104.718 225.5 111.667 218.598 111.667 210.083C111.667 201.569 104.718 194.667 96.1458 194.667C87.5739 194.667 80.625 201.569 80.625 210.083C80.625 218.598 87.5739 225.5 96.1458 225.5Z" stroke="white" stroke-width="14" stroke-linecap="round" stroke-linejoin="round"/>
<path d="M176.854 225.5C185.426 225.5 192.375 218.598 192.375 210.083C192.375 201.569 185.426 194.667 176.854 194.667C168.282 194.667 161.333 201.569 161.333 210.083C161.333 218.598 168.282 225.5 176.854 225.5Z" stroke="white" stroke-width="14" stroke-linecap="round" stroke-linejoin="round"/>
</g>
<defs>
<clipPath id="clip0_103_126">
<rect width="149" height="148" fill="white" transform="translate(62 96)"/>
</clipPath>
</defs>
</svg>
